<svg xmlns="http://www.w3.org/2000/svg" width="28.714" height="25.5" viewBox="0 0 28.714 25.5">
  <path id="Icon_awesome-stream" data-name="Icon awesome-stream" d="M.8,7.071H21.7a.8.8,0,0,0,.8-.8V3.054a.8.8,0,0,0-.8-.8H.8a.8.8,0,0,0-.8.8V6.268A.8.8,0,0,0,.8,7.071Zm24.107,4.018H4.018a.8.8,0,0,0-.8.8v3.214a.8.8,0,0,0,.8.8H24.911a.8.8,0,0,0,.8-.8V11.893A.8.8,0,0,0,24.911,11.089ZM21.7,19.929H.8a.8.8,0,0,0-.8.8v3.214a.8.8,0,0,0,.8.8H21.7a.8.8,0,0,0,.8-.8V20.732A.8.8,0,0,0,21.7,19.929Z" transform="translate(1.5 -0.75)" fill="#fff" stroke="#1a237e" stroke-width="3"/>
</svg>
