<svg xmlns="http://www.w3.org/2000/svg" width="22.901" height="22.901" viewBox="0 0 22.901 22.901">
  <g id="Icon_feather-settings" data-name="Icon feather-settings" transform="translate(0.5 0.5)">
    <path id="Path_18" data-name="Path 18" d="M19.473,16.487A2.987,2.987,0,1,1,16.487,13.5,2.987,2.987,0,0,1,19.473,16.487Z" transform="translate(-5.535 -5.536)" fill="none" stroke="#fff" stroke-linecap="round" stroke-linejoin="round" stroke-width="1"/>
    <path id="Path_19" data-name="Path 19" d="M19.818,15.437a1.643,1.643,0,0,0,.329,1.812l.06.06a1.992,1.992,0,1,1-2.817,2.817l-.06-.06a1.656,1.656,0,0,0-2.807,1.175v.169a1.991,1.991,0,1,1-3.982,0v-.09a1.643,1.643,0,0,0-1.075-1.5,1.643,1.643,0,0,0-1.812.329l-.06.06a1.992,1.992,0,1,1-2.817-2.817l.06-.06A1.656,1.656,0,0,0,3.66,14.521H3.491a1.991,1.991,0,0,1,0-3.982h.09a1.643,1.643,0,0,0,1.5-1.075,1.643,1.643,0,0,0-.329-1.812l-.06-.06A1.992,1.992,0,1,1,7.513,4.775l.06.06a1.643,1.643,0,0,0,1.812.329h.08a1.643,1.643,0,0,0,1-1.5V3.491a1.991,1.991,0,0,1,3.982,0v.09a1.656,1.656,0,0,0,2.807,1.175l.06-.06a1.992,1.992,0,1,1,2.817,2.817l-.06.06a1.643,1.643,0,0,0-.329,1.812v.08a1.643,1.643,0,0,0,1.5,1h.169a1.991,1.991,0,0,1,0,3.982h-.09a1.643,1.643,0,0,0-1.5,1Z" transform="translate(-1.5 -1.5)" fill="none" stroke="#fff" stroke-linecap="round" stroke-linejoin="round" stroke-width="1"/>
  </g>
</svg>
