<svg id="Group_308" data-name="Group 308" xmlns="http://www.w3.org/2000/svg" xmlns:xlink="http://www.w3.org/1999/xlink" width="294.578" height="42.755" viewBox="0 0 294.578 42.755">
  <defs>
    <clipPath id="clip-path">
      <rect id="Rectangle_765" data-name="Rectangle 765" width="294.578" height="42.755" fill="none"/>
    </clipPath>
  </defs>
  <g id="Group_307" data-name="Group 307" clip-path="url(#clip-path)">
    <path id="Path_371" data-name="Path 371" d="M143.236,22.349h6.77v3.2a10.846,10.846,0,0,1,8.53-3.732c7.357,0,12.049,6.184,12.049,13.807,0,7.731-4.8,13.915-12.155,13.915a10.358,10.358,0,0,1-8.05-3.571V56.681h-7.144Zm20.045,13.328c0-4.212-2.719-7.25-6.611-7.25-3.625,0-6.344,2.985-6.344,7.25,0,4.211,2.666,7.25,6.344,7.25,3.892,0,6.611-3.038,6.611-7.25" transform="translate(-91.432 -13.926)" fill="#1a237e"/>
    <path id="Path_372" data-name="Path 372" d="M229.465,35.677c0-7.677,4.691-13.861,12.048-13.861a10.414,10.414,0,0,1,8.316,3.785V22.349h6.984V49h-6.984v-3.2c-1.865,2.559-5.224,3.732-8.316,3.732-7.357,0-12.048-6.184-12.048-13.861m20.2,0c0-4.159-2.666-7.25-6.344-7.25-3.838,0-6.611,3.092-6.611,7.25,0,4.211,2.773,7.25,6.611,7.25,3.679,0,6.344-2.985,6.344-7.25" transform="translate(-146.475 -13.926)" fill="#1a237e"/>
    <path id="Path_373" data-name="Path 373" d="M320.116,22.348h7.037v5.118c.746-2.186,3.465-5.651,9.33-5.651V29.6c-6.184,0-9.223,2.826-9.223,9.169V49h-7.144Z" transform="translate(-204.34 -13.925)" fill="#1a237e"/>
    <path id="Path_374" data-name="Path 374" d="M372.3,45.912l2.559-5.491a12.909,12.909,0,0,0,8.317,2.825c1.653,0,4.372-.639,4.372-2.239s-2.293-1.973-4.585-2.613c-5.277-1.386-9.6-3.145-9.6-8.263,0-5.438,5.331-8.317,10.343-8.317a18.186,18.186,0,0,1,9.917,2.666l-2.4,5.331a16.722,16.722,0,0,0-7.41-1.866c-1.652,0-3.2.746-3.2,1.866,0,1.493,2.239,1.973,4.691,2.506,4.532,1.066,9.49,3.039,9.49,8.477,0,6.557-6.664,8.743-11.622,8.743-5.7,0-9.383-2.239-10.875-3.625" transform="translate(-237.648 -13.925)" fill="#1a237e"/>
    <path id="Path_375" data-name="Path 375" d="M444.081,35.677a13.688,13.688,0,0,1,13.807-13.862c7.25,0,12.955,6.184,12.955,13.754a23.7,23.7,0,0,1-.16,2.559H451.331c.854,3.678,3.892,5.437,7.411,5.437a13.228,13.228,0,0,0,7.2-2.079l2.666,5.118a17.961,17.961,0,0,1-9.915,2.932c-7.783,0-14.607-5.064-14.607-13.86m20.045-2.293a6.439,6.439,0,0,0-6.45-5.6,6.682,6.682,0,0,0-6.451,5.6Z" transform="translate(-283.471 -13.925)" fill="#1a237e"/>
    <path id="Path_376" data-name="Path 376" d="M528.836,35.677c0-7.677,4.692-13.861,12.049-13.861A10.414,10.414,0,0,1,549.2,25.6V22.349h6.984V49H549.2v-3.2c-1.866,2.559-5.224,3.732-8.316,3.732-7.357,0-12.049-6.184-12.049-13.861m20.205,0c0-4.159-2.666-7.25-6.344-7.25-3.838,0-6.611,3.092-6.611,7.25,0,4.211,2.773,7.25,6.611,7.25,3.678,0,6.344-2.985,6.344-7.25" transform="translate(-337.573 -13.926)" fill="#1a237e"/>
    <path id="Path_377" data-name="Path 377" d="M626.26,31.881v3.2h-6.77V0h7.143V11.409a10.492,10.492,0,0,1,8.051-3.519c7.356,0,12.154,6.184,12.154,13.861s-4.691,13.861-12.048,13.861a10.719,10.719,0,0,1-8.53-3.732m13.327-10.128c0-4.159-2.772-7.25-6.611-7.25-3.678,0-6.344,3.092-6.344,7.25,0,4.264,2.719,7.25,6.344,7.25,3.839,0,6.611-3.038,6.611-7.25" transform="translate(-395.441 -0.001)" fill="#1a237e"/>
    <rect id="Rectangle_764" data-name="Rectangle 764" width="7.143" height="35.078" transform="translate(256.035)" fill="#1a237e"/>
    <path id="Path_378" data-name="Path 378" d="M740.5,35.677a13.688,13.688,0,0,1,13.808-13.862c7.25,0,12.954,6.184,12.954,13.754a23.643,23.643,0,0,1-.16,2.559H747.753c.854,3.678,3.892,5.437,7.41,5.437a13.231,13.231,0,0,0,7.2-2.079l2.666,5.118a17.965,17.965,0,0,1-9.916,2.932c-7.784,0-14.607-5.064-14.607-13.86m20.045-2.293a6.44,6.44,0,0,0-6.451-5.6,6.682,6.682,0,0,0-6.45,5.6Z" transform="translate(-472.687 -13.925)" fill="#1a237e"/>
    <path id="Path_379" data-name="Path 379" d="M74.155,60.931,56.74,78.346a1.173,1.173,0,0,0,.919,2A20.123,20.123,0,0,0,76.154,61.85a1.173,1.173,0,0,0-2-.919" transform="translate(-35.998 -38.673)" fill="#1a237e"/>
    <path id="Path_380" data-name="Path 380" d="M54.928,32.309l-.031-.065a3.457,3.457,0,0,0-5.57-1L27.053,53.519a3.456,3.456,0,0,0,1,5.569l.065.031a3.428,3.428,0,0,0,3.872-.7L54.229,36.181a3.428,3.428,0,0,0,.7-3.872" transform="translate(-16.627 -19.302)" fill="#1a237e"/>
    <path id="Path_381" data-name="Path 381" d="M19.418,6.194a1.173,1.173,0,0,0-.919-2A20.123,20.123,0,0,0,0,22.69a1.173,1.173,0,0,0,2,.919Z" transform="translate(0 -2.675)" fill="#1a237e"/>
    <path id="Path_382" data-name="Path 382" d="M7.846,63.888,5.29,66.444a3.45,3.45,0,0,0-.68,3.913l.027.059a3.447,3.447,0,0,0,5.554.965l2.574-2.574a3.478,3.478,0,0,0-4.919-4.919" transform="translate(-2.732 -40.131)" fill="#1a237e"/>
    <path id="Path_383" data-name="Path 383" d="M39.557,26.019,51.194,14.382a3.447,3.447,0,0,0-.966-5.554L50.17,8.8a3.45,3.45,0,0,0-3.913.68L34.638,21.1a3.478,3.478,0,0,0,4.919,4.919" transform="translate(-21.461 -5.407)" fill="#ff9800"/>
  </g>
</svg>
