<svg id="Group_295" data-name="Group 295" xmlns="http://www.w3.org/2000/svg" xmlns:xlink="http://www.w3.org/1999/xlink" width="178.376" height="30.25" viewBox="0 0 178.376 30.25">
  <defs>
    <clipPath id="clip-path">
      <rect id="Rectangle_745" data-name="Rectangle 745" width="178.376" height="30.25" fill="none"/>
    </clipPath>
  </defs>
  <rect id="Rectangle_743" data-name="Rectangle 743" width="178.376" height="30.25" fill="#1a237e"/>
  <g id="Group_294" data-name="Group 294">
    <g id="Group_293" data-name="Group 293" clip-path="url(#clip-path)">
      <path id="Path_351" data-name="Path 351" d="M156.932,33.888H160.9v1.888a6.333,6.333,0,0,1,5-2.2c4.31,0,7.058,3.65,7.058,8.148,0,4.562-2.811,8.212-7.121,8.212a6.049,6.049,0,0,1-4.716-2.108v6.323h-4.185Zm11.743,7.865c0-2.486-1.593-4.279-3.873-4.279-2.124,0-3.717,1.761-3.717,4.279,0,2.485,1.562,4.278,3.717,4.278,2.28,0,3.873-1.793,3.873-4.278" transform="translate(-123.682 -26.407)" fill="#fff"/>
      <path id="Path_352" data-name="Path 352" d="M243.16,41.753c0-4.531,2.748-8.18,7.058-8.18a6.082,6.082,0,0,1,4.872,2.234V33.888h4.092V49.618H255.09V47.73a6.012,6.012,0,0,1-4.872,2.2c-4.31,0-7.058-3.65-7.058-8.18m11.837,0c0-2.454-1.562-4.279-3.717-4.279a3.968,3.968,0,0,0-3.873,4.279c0,2.485,1.624,4.278,3.873,4.278,2.155,0,3.717-1.762,3.717-4.278" transform="translate(-191.64 -26.407)" fill="#fff"/>
      <path id="Path_353" data-name="Path 353" d="M333.812,33.888h4.122v3.02c.437-1.29,2.03-3.335,5.466-3.335v4.593c-3.623,0-5.4,1.668-5.4,5.411v6.041h-4.185Z" transform="translate(-263.085 -26.407)" fill="#fff"/>
      <path id="Path_354" data-name="Path 354" d="M385.991,47.794l1.5-3.241a7.529,7.529,0,0,0,4.872,1.667c.968,0,2.561-.377,2.561-1.321s-1.343-1.164-2.686-1.542c-3.092-.818-5.622-1.856-5.622-4.876,0-3.209,3.123-4.908,6.059-4.908a10.6,10.6,0,0,1,5.809,1.573l-1.406,3.146a9.739,9.739,0,0,0-4.341-1.1c-.968,0-1.874.441-1.874,1.1,0,.881,1.312,1.164,2.748,1.479,2.655.629,5.56,1.793,5.56,5,0,3.87-3.9,5.159-6.809,5.159a9.454,9.454,0,0,1-6.371-2.139" transform="translate(-304.209 -26.407)" fill="#fff"/>
      <path id="Path_355" data-name="Path 355" d="M457.777,41.753a8.049,8.049,0,0,1,8.089-8.18,7.84,7.84,0,0,1,7.589,8.117,14.089,14.089,0,0,1-.093,1.51H462.024a4.135,4.135,0,0,0,4.342,3.209,7.708,7.708,0,0,0,4.216-1.227l1.562,3.02a10.466,10.466,0,0,1-5.809,1.73c-4.56,0-8.557-2.989-8.557-8.179M469.52,40.4a3.781,3.781,0,0,0-3.779-3.3,3.924,3.924,0,0,0-3.779,3.3Z" transform="translate(-360.785 -26.407)" fill="#fff"/>
      <path id="Path_356" data-name="Path 356" d="M542.531,41.753c0-4.531,2.749-8.18,7.059-8.18a6.083,6.083,0,0,1,4.872,2.234V33.888h4.091V49.618h-4.091V47.73a6.013,6.013,0,0,1-4.872,2.2c-4.31,0-7.059-3.65-7.059-8.18m11.837,0c0-2.454-1.562-4.279-3.717-4.279a3.968,3.968,0,0,0-3.873,4.279c0,2.485,1.624,4.278,3.873,4.278,2.155,0,3.717-1.762,3.717-4.278" transform="translate(-427.582 -26.407)" fill="#fff"/>
      <path id="Path_357" data-name="Path 357" d="M637.151,30.571v1.888h-3.966v-20.7h4.185v6.733a6.127,6.127,0,0,1,4.716-2.077c4.31,0,7.12,3.65,7.12,8.18s-2.748,8.18-7.058,8.18a6.259,6.259,0,0,1-5-2.2m7.808-5.977a3.967,3.967,0,0,0-3.873-4.279c-2.155,0-3.716,1.824-3.716,4.279,0,2.517,1.593,4.278,3.716,4.278,2.249,0,3.873-1.793,3.873-4.278" transform="translate(-499.029 -9.248)" fill="#fff"/>
      <rect id="Rectangle_744" data-name="Rectangle 744" width="4.185" height="20.701" transform="translate(152.895 2.51)" fill="#fff"/>
      <path id="Path_358" data-name="Path 358" d="M754.2,41.753a8.049,8.049,0,0,1,8.089-8.18,7.84,7.84,0,0,1,7.589,8.117,14.052,14.052,0,0,1-.094,1.51H758.446a4.135,4.135,0,0,0,4.341,3.209A7.71,7.71,0,0,0,767,45.182l1.562,3.02a10.469,10.469,0,0,1-5.809,1.73c-4.56,0-8.557-2.989-8.557-8.179M765.942,40.4a3.781,3.781,0,0,0-3.779-3.3,3.923,3.923,0,0,0-3.779,3.3Z" transform="translate(-594.403 -26.407)" fill="#fff"/>
      <path id="Path_359" data-name="Path 359" d="M80.494,72.547l-10.2,10.277A.693.693,0,0,0,70.83,84a11.708,11.708,0,0,0,7.418-3.442,11.871,11.871,0,0,0,3.417-7.472.687.687,0,0,0-1.171-.543" transform="translate(-55.239 -56.902)" fill="#fff"/>
      <path id="Path_360" data-name="Path 360" d="M56.661,43.218l-.018-.039a2.018,2.018,0,0,0-3.263-.59L40.331,55.734a2.047,2.047,0,0,0,.586,3.287l.038.018a2,2,0,0,0,2.268-.413L56.252,45.5a2.034,2.034,0,0,0,.41-2.285" transform="translate(-31.322 -33.032)" fill="#fff"/>
      <path id="Path_361" data-name="Path 361" d="M25.071,17.131a.693.693,0,0,0-.539-1.18,11.708,11.708,0,0,0-7.418,3.442A11.87,11.87,0,0,0,13.7,26.866a.687.687,0,0,0,1.171.543Z" transform="translate(-10.794 -12.545)" fill="#fff"/>
      <path id="Path_362" data-name="Path 362" d="M20.064,75.227l-1.5,1.509a2.047,2.047,0,0,0-.4,2.309l.016.035a2.012,2.012,0,0,0,3.254.57l1.508-1.519a2.064,2.064,0,0,0,0-2.9,2.027,2.027,0,0,0-2.882,0" transform="translate(-14.166 -58.698)" fill="#fff"/>
      <path id="Path_363" data-name="Path 363" d="M50.793,30.583l6.817-6.867a2.042,2.042,0,0,0-.566-3.277l-.034-.016a2.01,2.01,0,0,0-2.292.4l-6.807,6.857a2.064,2.064,0,0,0,0,2.9,2.027,2.027,0,0,0,2.882,0" transform="translate(-37.29 -15.91)" fill="#ff9800"/>
    </g>
  </g>
</svg>
