<svg xmlns="http://www.w3.org/2000/svg" width="20" height="18.182" viewBox="0 0 20 18.182">
  <path id="Icon_material-live-tv" data-name="Icon material-live-tv" d="M19.682,6.636h-6.9l2.991-2.991L15.136,3,11.5,6.636,7.864,3l-.645.645,3,2.991h-6.9A1.818,1.818,0,0,0,1.5,8.455V19.364a1.824,1.824,0,0,0,1.818,1.818H19.682A1.824,1.824,0,0,0,21.5,19.364V8.455A1.818,1.818,0,0,0,19.682,6.636Zm0,12.727H3.318V8.455H19.682ZM8.773,10.273v7.273l6.364-3.636Z" transform="translate(-1.5 -3)" fill="#1a237e"/>
</svg>
