<svg xmlns="http://www.w3.org/2000/svg" viewBox="0 0 841.88976 141.73228"><path d="M156.93181,35.04726H175.651V43.8924c6.04393-7.22378,14.74063-10.31933,23.5845-10.31933,20.3418,0,33.31391,17.09908,33.31391,38.1767,0,21.37448-13.26645,38.47356-33.60824,38.47356-8.54954,0-16.95191-3.38987-22.25747-9.87529v29.62588H156.93181Zm55.42294,36.85221c0-11.64635-7.51811-20.04746-18.27767-20.04746-10.02373,0-17.54185,8.25394-17.54185,20.04746,0,11.64382,7.37095,20.04492,17.54185,20.04492C204.83664,91.94439,212.35475,83.54329,212.35475,71.89947Z" fill="#1a237e"/><path d="M243.1605,71.89947c0-21.22732,12.97084-38.3264,33.31263-38.3264,8.54954,0,17.689,3.39114,22.99457,10.46649v-8.9923h19.31037v73.70188H299.4677V99.904c-5.1584,7.07662-14.445,10.31933-22.99457,10.31933C256.13134,110.22333,243.1605,93.12425,243.1605,71.89947Zm55.8657,0c0-11.49919-7.37094-20.04746-17.54184-20.04746-10.61239,0-18.27767,8.54827-18.27767,20.04746,0,11.64382,7.66528,20.04492,18.27767,20.04492C291.65526,91.94439,299.0262,83.69045,299.0262,71.89947Z" fill="#1a237e"/><path d="M333.81176,35.04726H353.268V49.198c2.06412-6.04266,9.581-15.62489,25.79579-15.62489V55.09472c-17.09908,0-25.50019,7.81245-25.50019,25.353v28.3014H333.81176Z" fill="#1a237e"/><path d="M385.99072,100.20087l7.07535-15.18339a35.68874,35.68874,0,0,0,22.99457,7.81244c4.56974,0,12.08785-1.76852,12.08785-6.19109S421.809,81.18357,415.47071,79.415c-14.59219-3.83137-26.53288-8.69544-26.53288-22.84614,0-15.03623,14.74063-22.99584,28.597-22.99584a50.27626,50.27626,0,0,1,27.41841,7.371l-6.63512,14.73936a46.25,46.25,0,0,0-20.489-5.15839c-4.56973,0-8.84387,2.06412-8.84387,5.15839,0,4.12824,6.19109,5.454,12.97084,6.92819C434.48675,65.56,448.196,71.01394,448.196,86.05017c0,18.12924-18.4261,24.17316-32.13531,24.17316C400.28859,110.22333,390.11769,104.03224,385.99072,100.20087Z" fill="#1a237e"/><path d="M457.77692,71.89947c0-21.22732,16.50788-38.3264,38.1767-38.3264,20.04746,0,35.81951,17.09908,35.81951,38.02953a65.47256,65.47256,0,0,1-.44149,7.07662h-53.5098c2.35972,10.16963,10.76083,15.03369,20.49149,15.03369a36.57561,36.57561,0,0,0,19.89776-5.747l7.37095,14.1507a49.65518,49.65518,0,0,1-27.41587,8.10677C476.64452,110.22333,457.77692,96.2198,457.77692,71.89947ZM513.19986,65.56A17.80319,17.80319,0,0,0,495.365,50.08222c-8.5508,0-15.92175,6.19109-17.83744,15.47773Z" fill="#1a237e"/><path d="M542.53142,71.89947c0-21.22732,12.97338-38.3264,33.31517-38.3264,8.54827,0,17.68774,3.39114,22.9933,10.46649v-8.9923H618.149v73.70188h-19.3091V99.904c-5.15839,7.07662-14.445,10.31933-22.9933,10.31933C555.5048,110.22333,542.53142,93.12425,542.53142,71.89947Zm55.867,0c0-11.49919-7.37095-20.04746-17.54058-20.04746-10.61366,0-18.27894,8.54827-18.27894,20.04746,0,11.64382,7.66528,20.04492,18.27894,20.04492C591.02745,91.94439,598.3984,83.69045,598.3984,71.89947Z" fill="#1a237e"/><path d="M651.90565,99.904v8.84514H633.18522V11.75836h19.75059V43.30247c5.3081-6.33826,13.7092-9.7294,22.26-9.7294,20.33926,0,33.607,17.09908,33.607,38.3264,0,21.22478-12.97085,38.32386-33.31264,38.32386C666.645,110.22333,657.35838,106.98062,651.90565,99.904Zm36.84968-28.00453c0-11.49919-7.66528-20.04746-18.27894-20.04746-10.16963,0-17.54058,8.54827-17.54058,20.04746,0,11.791,7.51811,20.04492,17.54058,20.04492C681.09005,91.94439,688.75533,83.54329,688.75533,71.89947Z" fill="#1a237e"/><path d="M721.62392,11.75836h19.7506v96.99078h-19.7506Z" fill="#1a237e"/><path d="M754.19819,71.89947c0-21.22732,16.51042-38.3264,38.17924-38.3264,20.04492,0,35.817,17.09908,35.817,38.02953a65.4711,65.4711,0,0,1-.4415,7.07662H774.24565c2.35972,10.16963,10.76083,15.03369,20.489,15.03369a36.5842,36.5842,0,0,0,19.90029-5.747l7.37095,14.1507a49.66948,49.66948,0,0,1-27.41841,8.10677C773.06579,110.22333,754.19819,96.2198,754.19819,71.89947ZM809.62367,65.56a17.80569,17.80569,0,0,0-17.83744-15.47773c-8.54827,0-15.91922,6.19109-17.83491,15.47773Z" fill="#1a237e"/><path d="M119.19814,73.29916,71.04534,121.452a3.24469,3.24469,0,0,0,2.542,5.52727,55.64062,55.64062,0,0,0,51.13806-51.13806A3.24469,3.24469,0,0,0,119.19814,73.29916Z" fill="#1a237e"/><path d="M119.59714,47.72144q-.04252-.09045-.0854-.18077a9.55683,9.55683,0,0,0-15.40028-2.76328L42.52357,106.36528a9.55683,9.55683,0,0,0,2.76328,15.40028q.09033.04287.18077.0854a9.47787,9.47787,0,0,0,10.70576-1.9342L117.66294,58.4272A9.47787,9.47787,0,0,0,119.59714,47.72144Z" fill="#1a237e"/><path d="M67.38617,21.48719a3.24469,3.24469,0,0,0-2.542-5.52727A55.64061,55.64061,0,0,0,13.7061,67.098a3.24469,3.24469,0,0,0,5.52727,2.542Z" fill="#1a237e"/><path d="M27.83693,77.44346,20.7685,84.51189a9.53962,9.53962,0,0,0-1.8807,10.819l.07625.16148A9.52979,9.52979,0,0,0,34.32,98.1617l7.11759-7.1176a9.61708,9.61708,0,0,0,0-13.60063l0,0A9.61708,9.61708,0,0,0,27.83693,77.44346Z" fill="#1a237e"/><path d="M63.73208,68.7496,95.90791,36.57377a9.52981,9.52981,0,0,0-2.66938-15.35593l-.16148-.07625a9.53965,9.53965,0,0,0-10.819,1.8807L50.13143,55.149a9.61711,9.61711,0,0,0,0,13.60064l0,0A9.61711,9.61711,0,0,0,63.73208,68.7496Z" fill="#ff9800"/></svg>