<?xml version="1.0" standalone="no"?>
<!DOCTYPE svg PUBLIC "-//W3C//DTD SVG 20010904//EN"
 "http://www.w3.org/TR/2001/REC-SVG-20010904/DTD/svg10.dtd">
<svg version="1.0" xmlns="http://www.w3.org/2000/svg"
 width="1667.000000pt" height="1355.000000pt" viewBox="0 0 1667.000000 1355.000000"
 preserveAspectRatio="xMidYMid meet">

<g transform="translate(0.000000,1355.000000) scale(0.100000,-0.100000)"
fill="#000000" stroke="none">
<path d="M5427 11808 c-16 -52 -14 -78 4 -45 6 9 16 17 24 17 8 0 18 -8 24
-17 18 -33 20 -7 4 45 -9 29 -22 52 -28 52 -6 0 -19 -23 -28 -52z m31 -17
c-15 -5 -19 4 -11 24 6 18 7 18 13 -1 4 -10 3 -21 -2 -23z"/>
<path d="M5670 11805 c0 -30 5 -55 10 -55 6 0 10 25 10 55 0 30 -4 55 -10 55
-5 0 -10 -25 -10 -55z"/>
<path d="M5842 11838 c-6 -6 -9 -16 -7 -22 2 -6 6 -23 9 -38 4 -18 13 -28 24
-27 10 0 12 3 5 6 -15 5 -18 60 -4 65 5 2 3 8 -4 15 -9 8 -16 8 -23 1z"/>
<path d="M5510 11788 c0 -46 18 -51 22 -5 2 17 8 32 13 32 6 0 11 -15 13 -32
4 -41 22 -44 22 -4 0 33 -17 51 -48 48 -19 -1 -22 -7 -22 -39z"/>
<path d="M5600 11821 c0 -6 7 -8 15 -5 22 9 18 -5 -7 -25 -25 -21 -17 -41 18
-41 23 0 25 3 22 38 -2 30 -7 38 -25 40 -13 2 -23 -1 -23 -7z m26 -58 c-10
-10 -19 5 -10 18 6 11 8 11 12 0 2 -7 1 -15 -2 -18z"/>
<path d="M5704 11814 c15 -40 17 -65 6 -79 -7 -8 -8 -15 -2 -15 5 0 15 6 21
13 16 20 41 97 31 97 -4 0 -13 -12 -18 -27 l-10 -28 -7 28 c-4 15 -12 27 -17
27 -6 0 -7 -7 -4 -16z"/>
<path d="M5783 11814 c-4 -10 0 -20 10 -26 22 -12 22 -25 0 -31 -15 -4 -15 -5
-2 -6 9 0 22 5 29 13 9 12 7 17 -9 28 -24 15 -28 33 -6 24 8 -3 15 -1 15 4 0
16 -30 11 -37 -6z"/>
<path d="M5895 11819 c-4 -5 0 -18 9 -28 20 -22 21 -35 1 -27 -8 3 -15 1 -15
-4 0 -6 9 -10 20 -10 28 0 37 28 14 45 -17 13 -17 16 -4 25 13 8 13 10 -2 10
-9 0 -20 -5 -23 -11z"/>
<path d="M6297 11813 c-4 -3 -7 -28 -7 -55 0 -46 1 -48 28 -48 52 0 81 59 46
94 -16 16 -55 22 -67 9z m47 -9 c19 -7 21 -55 4 -72 -25 -25 -38 -13 -38 33 0
45 5 50 34 39z"/>
<path d="M6633 11803 c-4 -10 2 -23 15 -34 29 -23 30 -53 2 -46 -11 3 -20 1
-20 -5 0 -16 42 -4 54 15 9 15 7 22 -11 34 -26 17 -32 49 -8 39 8 -3 15 -1 15
4 0 17 -40 11 -47 -7z"/>
<path d="M6780 11810 c0 -5 5 -10 10 -10 6 0 10 5 10 10 0 6 -4 10 -10 10 -5
0 -10 -4 -10 -10z"/>
<path d="M7030 11810 c0 -5 5 -10 10 -10 6 0 10 5 10 10 0 6 -4 10 -10 10 -5
0 -10 -4 -10 -10z"/>
<path d="M6472 11798 c-6 -6 -9 -16 -7 -22 2 -6 6 -23 9 -38 4 -18 13 -28 24
-27 10 0 12 3 5 6 -15 5 -18 60 -4 65 5 2 3 8 -4 15 -9 8 -16 8 -23 1z"/>
<path d="M6978 11798 c-6 -21 6 -81 18 -85 6 -2 8 10 6 32 -3 23 0 35 8 35 7
0 6 5 -4 15 -18 18 -23 19 -28 3z"/>
<path d="M7128 11798 c-6 -21 6 -81 18 -85 6 -2 8 10 6 32 -3 23 0 35 8 35 7
0 6 5 -4 15 -18 18 -23 19 -28 3z"/>
<path d="M6400 11779 c0 -5 5 -7 10 -4 6 3 15 3 21 -1 7 -4 2 -11 -13 -18 -34
-17 -29 -41 10 -43 29 -1 32 2 32 26 0 15 -5 32 -12 39 -15 15 -48 16 -48 1z
m40 -38 c0 -12 -20 -25 -27 -18 -7 7 6 27 18 27 5 0 9 -4 9 -9z"/>
<path d="M6520 11782 c0 -6 9 -8 20 -5 11 3 20 0 20 -6 0 -6 -6 -11 -13 -11
-19 0 -36 -20 -30 -36 3 -8 18 -14 35 -14 28 0 29 2 26 38 -3 32 -7 37 -30 40
-16 2 -28 -1 -28 -6z m40 -40 c0 -13 -12 -22 -22 -16 -10 6 -1 24 13 24 5 0 9
-4 9 -8z"/>
<path d="M6716 11774 c-19 -18 -19 -20 -6 -45 6 -10 21 -19 33 -18 l22 0 -22
9 c-14 6 -23 18 -23 30 0 12 9 24 23 30 16 6 17 9 5 9 -9 1 -24 -6 -32 -15z"/>
<path d="M6780 11750 c0 -22 5 -40 10 -40 6 0 10 18 10 40 0 22 -4 40 -10 40
-5 0 -10 -18 -10 -40z"/>
<path d="M6822 11778 c-26 -26 -6 -69 33 -67 19 0 19 1 -2 9 -31 12 -29 30 2
30 14 0 25 4 25 8 0 12 -22 32 -35 32 -6 0 -16 -5 -23 -12z m38 -8 c0 -5 -7
-10 -16 -10 -8 0 -12 5 -9 10 3 6 10 10 16 10 5 0 9 -4 9 -10z"/>
<path d="M6890 11749 c0 -47 17 -52 22 -6 2 17 8 32 13 32 6 0 11 -15 13 -32
2 -18 8 -33 13 -33 6 0 9 17 7 38 -3 34 -6 37 -35 39 -32 1 -33 0 -33 -38z"/>
<path d="M7030 11750 c0 -22 5 -40 10 -40 6 0 10 18 10 40 0 22 -4 40 -10 40
-5 0 -10 -18 -10 -40z"/>
<path d="M7073 11774 c-4 -10 0 -20 10 -26 22 -12 22 -25 0 -31 -15 -4 -15 -5
-2 -6 9 0 22 5 29 13 9 12 7 17 -9 28 -24 15 -28 33 -6 24 8 -3 15 -1 15 4 0
16 -30 11 -37 -6z"/>
<path d="M7183 11774 c-4 -10 0 -20 10 -26 22 -12 22 -25 0 -31 -15 -4 -15 -5
-2 -6 9 0 22 5 29 13 9 12 7 17 -9 28 -24 15 -28 33 -6 24 8 -3 15 -1 15 4 0
16 -30 11 -37 -6z"/>
<path d="M11176 11774 c-34 -33 -7 -98 37 -92 12 2 28 15 36 29 13 24 13 29
-2 53 -20 29 -48 34 -71 10z m52 -6 c28 -28 3 -85 -32 -72 -19 7 -22 70 -3 77
19 8 22 8 35 -5z"/>
<path d="M11320 11735 c0 -59 16 -76 21 -22 5 43 0 77 -12 77 -5 0 -9 -25 -9
-55z"/>
<path d="M9709 11764 c-12 -14 -10 -19 15 -39 31 -25 27 -50 -6 -39 -14 4 -18
2 -14 -5 10 -16 42 -13 57 5 12 14 10 19 -15 39 -28 23 -28 52 0 41 8 -3 14
-1 14 4 0 16 -36 11 -51 -6z"/>
<path d="M10070 11770 c0 -5 5 -10 10 -10 6 0 10 5 10 10 0 6 -4 10 -10 10 -5
0 -10 -4 -10 -10z"/>
<path d="M10260 11725 l0 -55 33 1 c23 1 26 3 10 6 -14 3 -23 12 -23 23 0 11
9 20 23 23 l22 4 -22 2 c-16 1 -23 7 -23 20 0 12 8 21 23 24 16 3 13 5 -10 6
l-33 1 0 -55z"/>
<path d="M11272 11768 c-6 -6 -9 -16 -7 -22 2 -6 6 -23 9 -38 4 -18 13 -28 24
-27 10 0 12 3 5 6 -15 5 -18 60 -4 65 5 2 3 8 -4 15 -9 8 -16 8 -23 1z"/>
<path d="M10108 11758 c-6 -21 6 -81 18 -85 6 -2 8 10 6 33 -3 27 -1 35 9 32
20 -7 34 -58 20 -80 -13 -21 1 -25 18 -5 16 20 41 97 31 97 -4 0 -13 -12 -18
-27 l-10 -28 -7 28 c-5 17 -14 27 -26 27 -10 0 -19 5 -19 10 0 14 -17 12 -22
-2z"/>
<path d="M10633 11759 c-6 -6 -20 -11 -32 -12 -17 -1 -21 -8 -21 -39 0 -46 17
-51 22 -6 3 35 28 52 28 20 0 -33 11 -52 29 -51 10 0 11 2 4 6 -15 5 -18 60
-4 65 5 2 3 8 -4 15 -8 7 -16 8 -22 2z"/>
<path d="M11358 11749 c6 -7 12 -26 12 -41 0 -15 5 -28 11 -28 6 0 9 16 7 37
-2 29 -8 39 -23 41 -16 3 -18 1 -7 -9z"/>
<path d="M11414 11746 c-12 -32 0 -61 29 -64 15 -2 27 1 27 6 0 5 -10 8 -21 8
-12 -1 -24 5 -26 12 -3 8 6 12 27 12 28 0 30 2 20 20 -12 23 -48 27 -56 6z
m41 -6 c3 -5 -3 -10 -15 -10 -12 0 -18 5 -15 10 3 6 10 10 15 10 5 0 12 -4 15
-10z"/>
<path d="M11490 11718 c0 -21 5 -38 10 -38 6 0 10 13 10 28 0 15 5 33 11 39 9
9 7 12 -10 10 -17 -1 -21 -8 -21 -39z"/>
<path d="M9784 11736 c-12 -32 0 -61 29 -64 15 -2 27 1 27 6 0 5 -10 8 -21 8
-12 -1 -24 5 -26 12 -8 22 55 15 67 -8 6 -11 20 -20 33 -19 l22 0 -22 9 c-14
6 -23 18 -23 30 0 12 9 24 23 30 16 6 17 9 5 9 -9 1 -24 -7 -33 -16 -16 -16
-18 -16 -27 0 -11 21 -47 22 -54 3z m41 -6 c3 -5 -3 -10 -15 -10 -12 0 -18 5
-15 10 3 6 10 10 15 10 5 0 12 -4 15 -10z"/>
<path d="M9932 11713 c3 -35 6 -38 36 -40 31 -1 32 0 32 38 0 47 -17 52 -22 7
-2 -18 -7 -33 -13 -33 -5 0 -11 15 -13 33 -2 17 -8 32 -13 32 -6 0 -9 -17 -7
-37z"/>
<path d="M10020 11708 c0 -21 5 -38 10 -38 6 0 10 13 10 28 0 15 5 33 11 39 9
9 7 12 -10 10 -17 -1 -21 -8 -21 -39z"/>
<path d="M10070 11710 c0 -22 5 -40 10 -40 6 0 10 18 10 40 0 22 -4 40 -10 40
-5 0 -10 -18 -10 -40z"/>
<path d="M10342 11730 c10 -16 10 -24 0 -40 -7 -11 -8 -20 -3 -20 6 0 14 7 19
16 8 15 10 15 15 0 4 -9 11 -16 16 -16 7 0 7 9 -1 25 -8 19 -8 28 2 40 14 17
0 21 -17 4 -8 -8 -13 -8 -17 0 -4 6 -11 11 -17 11 -5 0 -4 -9 3 -20z"/>
<path d="M10410 11693 c0 -29 5 -53 10 -53 6 0 10 9 10 19 0 14 5 18 19 14 26
-7 46 29 31 56 -7 13 -20 19 -40 19 -29 -1 -30 -2 -30 -55z m55 17 c0 -27 -22
-39 -31 -16 -8 22 3 49 19 43 6 -2 12 -14 12 -27z"/>
<path d="M10504 11736 c-12 -32 0 -61 29 -64 15 -2 27 1 27 6 0 5 -10 8 -21 8
-12 -1 -24 5 -26 12 -3 8 6 12 27 12 28 0 30 2 20 20 -12 23 -48 27 -56 6z
m41 -6 c3 -5 -3 -10 -15 -10 -12 0 -18 5 -15 10 3 6 10 10 15 10 5 0 12 -4 15
-10z"/>
<path d="M10685 11739 c-4 -5 0 -18 9 -28 20 -22 21 -35 1 -27 -8 3 -15 1 -15
-4 0 -6 9 -10 20 -10 28 0 37 28 14 45 -17 13 -17 16 -4 25 13 8 13 10 -2 10
-9 0 -20 -5 -23 -11z"/>
<path d="M8360 11410 c0 -53 4 -90 10 -90 6 0 10 37 10 90 0 53 -4 90 -10 90
-6 0 -10 -37 -10 -90z"/>
<path d="M7820 11404 l0 -87 52 5 c63 6 88 32 88 88 0 51 -35 80 -96 80 l-44
0 0 -86z m102 49 c42 -38 10 -113 -48 -113 l-34 0 0 65 0 65 32 0 c17 0 40 -7
50 -17z"/>
<path d="M8006 11418 c-33 -46 -7 -98 47 -98 38 0 34 18 -5 22 -22 2 -34 9
-36 21 -3 14 4 17 37 17 45 0 54 16 25 44 -22 22 -50 20 -68 -6z m64 -19 c0
-5 -13 -9 -30 -9 -33 0 -39 14 -13 29 18 10 43 -2 43 -20z"/>
<path d="M8110 11431 c0 -17 43 -111 51 -111 10 0 14 6 39 69 14 36 16 51 8
49 -7 -3 -20 -24 -29 -48 l-16 -43 -18 46 c-16 42 -35 63 -35 38z"/>
<path d="M8250 11420 c-41 -41 -13 -100 48 -100 45 0 40 18 -5 22 -27 2 -39 8
-41 21 -3 14 4 17 42 17 50 0 60 15 28 43 -25 22 -48 21 -72 -3z m70 -20 c0
-6 -16 -10 -35 -10 -38 0 -46 13 -18 29 19 10 53 -2 53 -19z"/>
<path d="M8430 11420 c-11 -11 -20 -29 -20 -40 0 -11 9 -29 20 -40 11 -11 29
-20 40 -20 11 0 29 9 40 20 11 11 20 29 20 40 0 11 -9 29 -20 40 -11 11 -29
20 -40 20 -11 0 -29 -9 -40 -20z m70 -15 c26 -32 -13 -81 -47 -59 -35 22 -23
74 17 74 10 0 23 -7 30 -15z"/>
<path d="M8560 11354 c0 -49 4 -84 10 -84 6 0 10 14 10 30 0 28 2 30 25 24 33
-8 65 19 65 55 0 42 -15 55 -65 57 l-45 2 0 -84z m85 46 c11 -36 -4 -62 -33
-58 -28 3 -40 32 -28 64 8 22 54 18 61 -6z"/>
<path d="M8710 11420 c-41 -41 -13 -100 48 -100 45 0 40 18 -5 22 -27 2 -39 8
-41 21 -3 14 4 17 42 17 50 0 60 15 28 43 -25 22 -48 21 -72 -3z m70 -20 c0
-6 -16 -10 -35 -10 -38 0 -46 13 -18 29 19 10 53 -2 53 -19z"/>
<path d="M8820 11380 c0 -33 4 -60 10 -60 6 0 10 18 10 39 0 30 6 44 22 55 12
9 19 19 15 22 -4 4 -13 1 -22 -6 -10 -8 -15 -9 -15 -1 0 6 -4 11 -10 11 -6 0
-10 -27 -10 -60z"/>
<path d="M8912 11428 c-20 -20 -14 -37 18 -53 34 -18 31 -35 -6 -35 -13 0 -24
-4 -24 -10 0 -16 56 -12 70 5 16 20 6 43 -25 55 -32 12 -32 30 0 30 14 0 25 5
25 10 0 14 -43 13 -58 -2z"/>
<path d="M8392 10837 c-23 -23 -42 -51 -42 -62 0 -17 3 -16 28 8 15 15 31 27
35 27 4 0 7 -153 7 -340 0 -296 2 -340 15 -340 13 0 15 44 15 340 0 187 3 340
7 340 4 0 20 -12 35 -27 26 -24 28 -25 28 -7 0 11 -19 39 -43 62 l-43 42 -42
-43z"/>
<path d="M8768 10009 c-10 -6 -18 -17 -18 -25 0 -9 -8 -14 -17 -13 -10 1 -30
1 -45 0 -27 -1 -28 -3 -28 -51 0 -38 4 -50 15 -50 11 0 15 11 15 35 0 28 5 38
23 44 31 12 37 6 37 -40 0 -28 4 -39 15 -39 11 0 15 11 15 39 0 22 5 42 13 44
9 4 8 8 -3 16 -13 10 -13 12 0 21 22 14 0 32 -22 19z"/>
<path d="M7820 9956 c0 -62 16 -86 59 -86 42 0 61 28 61 88 0 39 -4 52 -14 52
-11 0 -16 -15 -18 -52 -3 -49 -5 -53 -28 -53 -23 0 -25 4 -28 53 -2 37 -7 52
-18 52 -10 0 -14 -14 -14 -54z"/>
<path d="M8307 10003 c-4 -3 -7 -35 -7 -70 0 -49 3 -63 15 -63 12 0 15 14 15
70 0 64 -6 81 -23 63z"/>
<path d="M8478 9983 c-5 -64 9 -113 32 -113 21 0 27 15 10 25 -14 9 -12 52 3
59 10 5 10 7 0 12 -7 3 -13 12 -13 20 0 20 -30 17 -32 -3z"/>
<path d="M7975 9966 c-16 -12 -18 -18 -9 -33 6 -10 21 -19 33 -21 11 -2 21 -8
21 -13 0 -7 -12 -8 -31 -4 -24 5 -30 4 -27 -6 7 -20 62 -23 77 -5 17 21 7 46
-18 46 -11 0 -23 5 -27 11 -5 9 1 10 20 5 19 -5 26 -3 26 9 0 8 -4 15 -9 15
-5 0 -15 2 -23 5 -7 3 -22 -1 -33 -9z"/>
<path d="M8097 9972 c-29 -6 -41 -50 -22 -79 13 -19 23 -23 47 -21 17 2 33 9
36 17 3 10 -3 12 -26 6 -18 -3 -33 -2 -37 4 -4 7 7 11 30 11 33 0 36 2 33 26
-3 28 -29 43 -61 36z m33 -32 c0 -5 -7 -10 -15 -10 -8 0 -15 5 -15 10 0 6 7
10 15 10 8 0 15 -4 15 -10z"/>
<path d="M8208 9972 c-26 -3 -28 -6 -28 -53 0 -37 4 -49 15 -49 11 0 15 11 15
36 0 27 5 37 20 41 20 5 27 19 13 25 -5 2 -20 2 -35 0z"/>
<path d="M8388 9972 c-26 -3 -28 -6 -28 -53 0 -37 4 -49 15 -49 11 0 15 11 15
40 0 29 4 40 15 40 11 0 15 -11 15 -40 0 -29 4 -40 15 -40 11 0 15 12 15 45 0
49 -15 63 -62 57z"/>
<path d="M8577 9972 c-29 -6 -41 -50 -22 -79 13 -19 23 -23 47 -21 17 2 33 9
36 17 3 10 -3 12 -26 6 -18 -3 -33 -2 -37 4 -4 7 7 11 30 11 33 0 36 2 33 26
-3 28 -29 43 -61 36z m33 -32 c0 -5 -7 -10 -15 -10 -8 0 -15 5 -15 10 0 6 7
10 15 10 8 0 15 -4 15 -10z"/>
<path d="M8838 9969 c-27 -15 -22 -30 7 -23 15 4 25 2 25 -4 0 -6 -12 -12 -27
-14 -22 -2 -28 -8 -28 -28 0 -22 5 -25 43 -28 l42 -3 0 45 c0 35 -5 48 -19 56
-23 12 -22 12 -43 -1z m32 -69 c0 -5 -7 -10 -15 -10 -8 0 -15 5 -15 10 0 6 7
10 15 10 8 0 15 -4 15 -10z"/>
<path d="M8942 9964 c-24 -17 -30 -62 -10 -82 19 -19 66 -15 78 8 8 15 8 20
-3 20 -7 0 -18 -5 -24 -11 -15 -15 -33 -3 -33 22 0 24 29 37 41 18 6 -10 11
-11 19 -3 9 9 6 16 -11 28 -29 20 -29 20 -57 0z"/>
<path d="M9050 9960 c-22 -22 -25 -42 -10 -71 13 -24 62 -26 81 -3 12 15 10
16 -18 10 -18 -4 -34 -3 -38 3 -4 7 7 11 29 11 29 0 36 4 36 19 0 18 -34 51
-52 51 -5 0 -17 -9 -28 -20z m50 -20 c0 -5 -9 -10 -21 -10 -11 0 -17 5 -14 10
3 6 13 10 21 10 8 0 14 -4 14 -10z"/>
<path d="M570 9659 c-56 -25 -86 -53 -113 -104 -22 -40 -22 -44 -22 -660 l0
-620 27 -46 c32 -54 86 -94 148 -109 32 -7 390 -10 1210 -8 l1165 3 40 22 c51
27 89 67 112 118 16 35 18 77 21 333 l3 292 435 0 434 0 0 -945 0 -945 -452 2
-453 3 -5 307 -5 306 -30 44 c-36 50 -82 84 -136 98 -24 7 -441 9 -1211 8
l-1173 -3 -42 -22 c-51 -27 -96 -82 -112 -132 -16 -54 -16 -1198 0 -1252 17
-55 65 -108 123 -135 l51 -24 1169 0 c858 0 1179 3 1207 12 52 15 113 68 138
121 20 41 21 60 21 335 l0 292 455 0 455 0 0 -900 0 -900 -439 0 -440 0 -3
293 c-3 322 -5 333 -71 398 -69 69 38 64 -1293 64 l-1201 0 -49 -30 c-30 -19
-60 -49 -79 -79 l-30 -49 -3 -600 c-3 -669 -4 -661 64 -731 75 -77 -39 -71
1274 -74 866 -2 1186 0 1217 9 53 14 117 68 146 123 21 39 22 54 25 339 l3
297 440 0 439 0 0 -955 0 -955 -452 2 -453 3 -5 346 -5 346 -27 40 c-32 48
-79 85 -127 102 -25 8 -356 11 -1205 11 l-1171 0 -51 -24 c-57 -27 -110 -84
-124 -136 -6 -21 -10 -274 -10 -630 l0 -595 24 -51 c26 -56 74 -98 133 -120
31 -11 255 -13 1198 -14 748 0 1173 4 1196 10 52 15 99 49 134 98 l30 44 3
264 3 264 461 0 c427 0 462 1 474 18 11 14 13 285 14 1515 l0 1497 1567 0
1567 0 -34 -35 c-34 -35 -34 -35 -9 -35 16 0 40 15 67 43 l42 43 -43 42 c-23
23 -51 42 -62 42 -17 0 -16 -3 8 -28 15 -15 27 -31 27 -35 0 -4 -704 -7 -1565
-7 l-1565 0 0 1338 c0 1027 -3 1341 -12 1350 -9 9 -124 12 -454 12 l-442 0 -4
293 c-3 284 -4 293 -26 336 -29 54 -65 88 -117 112 -38 18 -95 19 -1220 19
-1166 0 -1181 -1 -1225 -21z m2447 -71 c81 -53 78 -28 78 -683 0 -319 -3 -592
-8 -607 -11 -42 -63 -95 -110 -113 -38 -14 -161 -15 -1203 -13 l-1160 3 -43
28 c-83 55 -81 33 -81 692 0 542 2 583 19 620 20 44 41 66 86 89 27 14 154 16
1206 14 l1175 -3 41 -27z m-62 -1907 c46 -21 79 -54 94 -94 15 -39 15 -1185 0
-1224 -14 -38 -57 -83 -96 -99 -27 -12 -229 -14 -1190 -14 -1104 0 -1160 1
-1198 19 -46 21 -79 54 -94 94 -15 39 -15 1185 0 1224 15 40 48 73 94 94 38
18 93 19 1195 19 1102 0 1157 -1 1195 -19z m52 -1863 c80 -53 78 -31 81 -663
2 -379 0 -576 -8 -611 -12 -58 -52 -108 -105 -129 -29 -13 -201 -15 -1192 -15
l-1157 0 -44 21 c-26 13 -54 38 -70 62 l-27 41 -3 580 c-2 387 0 593 7 617 15
51 48 88 95 110 39 18 89 19 1212 16 l1170 -2 41 -27z m-60 -1839 c38 -14 83
-57 99 -96 11 -26 14 -143 14 -617 0 -390 -4 -594 -11 -613 -15 -40 -48 -73
-94 -94 -38 -18 -93 -19 -1195 -19 -1107 0 -1157 1 -1196 19 -23 10 -54 36
-70 57 l-29 37 -3 586 c-2 322 0 601 3 619 7 39 58 100 100 118 39 17 2337 20
2382 3z"/>
<path d="M1620 9215 c0 -8 7 -15 15 -15 8 0 15 7 15 15 0 8 -7 15 -15 15 -8 0
-15 -7 -15 -15z"/>
<path d="M2137 9223 c-13 -12 -7 -23 13 -23 11 0 20 7 20 15 0 15 -21 21 -33
8z"/>
<path d="M1045 9208 c-3 -7 -20 -55 -39 -105 -29 -80 -32 -93 -17 -93 9 0 22
13 28 30 10 26 16 30 51 30 35 0 41 -3 51 -30 5 -17 17 -30 27 -30 11 0 14 5
9 18 -3 9 -20 56 -37 105 -24 68 -35 87 -50 87 -10 0 -21 -6 -23 -12z m34 -50
c25 -66 24 -68 -8 -68 -35 0 -35 -1 -19 51 13 45 16 47 27 17z"/>
<path d="M1550 9115 c0 -87 3 -105 15 -105 12 0 15 18 15 105 0 87 -3 105 -15
105 -12 0 -15 -18 -15 -105z"/>
<path d="M2040 9190 c0 -11 -7 -20 -15 -20 -8 0 -15 -4 -15 -9 0 -5 7 -11 15
-15 11 -4 15 -21 15 -59 0 -55 12 -77 42 -77 22 0 24 16 3 24 -11 4 -15 21
-15 61 0 42 3 55 15 55 8 0 15 5 15 10 0 6 -6 10 -14 10 -7 0 -16 9 -19 20 -3
11 -10 20 -16 20 -6 0 -11 -9 -11 -20z"/>
<path d="M1190 9060 c0 -91 3 -110 15 -110 11 0 15 11 15 42 0 33 3 39 12 30
18 -18 63 -14 83 8 11 12 18 35 18 60 0 25 -7 48 -18 60 -22 25 -70 26 -84 3
-10 -17 -10 -17 -11 0 0 9 -7 17 -15 17 -12 0 -15 -19 -15 -110z m100 70 c24
-24 25 -48 4 -78 -18 -26 -31 -28 -56 -5 -22 20 -23 61 -1 85 21 23 28 23 53
-2z"/>
<path d="M1370 9060 c0 -91 3 -110 15 -110 11 0 15 11 15 42 0 33 3 39 12 30
18 -18 63 -14 83 8 11 12 18 35 18 60 0 25 -7 48 -18 60 -22 25 -70 26 -84 3
-10 -17 -10 -17 -11 0 0 9 -7 17 -15 17 -12 0 -15 -19 -15 -110z m100 70 c24
-24 25 -48 4 -78 -18 -26 -31 -28 -56 -5 -22 20 -23 61 -1 85 21 23 28 23 53
-2z"/>
<path d="M1620 9090 c0 -64 3 -80 15 -80 12 0 15 16 15 80 0 64 -3 80 -15 80
-12 0 -15 -16 -15 -80z"/>
<path d="M1711 9144 c-45 -57 -13 -134 54 -134 24 0 39 7 50 22 19 28 2 37
-24 14 -22 -20 -35 -20 -55 0 -22 21 -20 67 4 89 18 17 21 17 45 1 36 -24 54
-15 27 12 -31 31 -75 29 -101 -4z"/>
<path d="M1875 9150 c-20 -23 -9 -26 30 -8 21 10 29 9 43 -6 15 -15 15 -18 2
-26 -8 -5 -27 -10 -42 -10 -46 0 -69 -58 -34 -82 17 -12 61 -9 74 4 9 9 12 9
12 0 0 -7 5 -12 10 -12 14 0 13 133 -2 148 -19 19 -73 14 -93 -8z m79 -93 c-8
-22 -42 -31 -60 -16 -18 15 -3 36 29 41 28 5 39 -4 31 -25z"/>
<path d="M2140 9090 c0 -64 3 -80 15 -80 12 0 15 16 15 80 0 64 -3 80 -15 80
-12 0 -15 -16 -15 -80z"/>
<path d="M2221 9144 c-44 -56 -13 -134 53 -134 45 0 71 30 71 82 0 73 -81 106
-124 52z m89 -27 c13 -24 13 -30 0 -54 -19 -33 -42 -40 -64 -18 -21 21 -21 63
1 87 22 24 44 19 63 -15z"/>
<path d="M2380 9090 c0 -64 3 -80 15 -80 11 0 15 13 15 54 0 36 5 60 16 70 33
34 54 8 54 -66 0 -45 3 -58 15 -58 12 0 15 14 15 68 0 74 -10 92 -50 92 -14 0
-31 -5 -38 -12 -9 -9 -12 -9 -12 0 0 7 -7 12 -15 12 -12 0 -15 -16 -15 -80z"/>
<path d="M1336 8798 c-21 -29 -4 -56 44 -72 37 -12 42 -24 17 -40 -11 -7 -24
-6 -41 4 -31 16 -43 9 -21 -14 23 -22 78 -20 99 3 27 29 12 59 -34 71 -46 12
-55 23 -35 40 13 11 20 10 40 0 29 -16 43 -7 25 15 -19 23 -76 19 -94 -7z"/>
<path d="M1501 8794 c-45 -57 -13 -134 54 -134 18 0 41 7 50 16 22 23 11 29
-24 15 -33 -14 -71 -1 -71 24 0 11 13 15 55 15 52 0 55 1 55 25 0 61 -81 87
-119 39z m77 -6 c24 -24 13 -38 -28 -38 -43 0 -49 9 -24 34 19 19 36 20 52 4z"/>
<path d="M1660 8740 c0 -63 3 -80 15 -80 10 0 15 16 17 63 3 56 5 62 26 65 12
2 22 10 22 18 0 17 -14 18 -41 4 -13 -7 -19 -7 -19 0 0 5 -4 10 -10 10 -6 0
-10 -33 -10 -80z"/>
<path d="M1760 8818 c0 -2 13 -37 28 -78 35 -95 53 -101 81 -26 32 85 35 106
19 106 -9 0 -22 -25 -34 -62 l-20 -63 -21 60 c-12 37 -26 61 -36 63 -9 2 -17
2 -17 0z"/>
<path d="M1950 8800 c-27 -27 -28 -100 -2 -123 23 -21 85 -22 102 -2 18 22 4
31 -24 15 -29 -15 -51 -9 -66 19 -10 20 -8 21 50 21 52 0 60 3 60 19 0 10 -9
30 -21 45 -25 32 -70 35 -99 6z m74 -16 c25 -25 19 -34 -24 -34 -41 0 -52 14
-28 38 16 16 33 15 52 -4z"/>
<path d="M2100 8740 c0 -64 3 -80 15 -80 11 0 15 13 15 53 0 59 7 73 34 78 11
2 21 10 24 17 5 16 -30 16 -46 0 -9 -9 -12 -9 -12 0 0 7 -7 12 -15 12 -12 0
-15 -16 -15 -80z"/>
<path d="M1120 6975 l0 -105 66 0 c48 0 65 3 62 13 -3 6 -25 13 -51 15 l-47 3
0 90 c0 72 -3 89 -15 89 -12 0 -15 -18 -15 -105z"/>
<path d="M1656 7064 c-36 -36 -10 -86 51 -99 17 -3 37 -13 44 -22 11 -13 10
-18 -10 -34 -25 -21 -60 -17 -74 7 -9 16 -37 19 -37 4 0 -5 9 -19 20 -30 42
-42 140 -15 140 38 0 25 -27 48 -75 64 -46 15 -61 52 -26 63 24 7 61 -2 61
-16 0 -5 7 -9 15 -9 22 0 19 27 -4 40 -29 15 -87 12 -105 -6z"/>
<path d="M2250 6975 c0 -87 3 -105 15 -105 11 0 15 13 15 54 0 36 5 60 16 70
34 34 57 11 62 -63 6 -83 22 -77 22 7 0 74 -10 92 -50 92 -14 0 -31 -5 -38
-12 -9 -9 -12 -4 -12 25 0 26 -4 37 -15 37 -12 0 -15 -18 -15 -105z"/>
<path d="M1833 7053 c-4 -10 -11 -22 -17 -26 -8 -6 -7 -10 2 -14 7 -3 12 -25
12 -62 0 -63 11 -81 50 -81 l25 1 -22 18 c-18 15 -23 30 -23 65 0 32 5 48 15
52 8 4 15 10 15 15 0 5 -7 9 -15 9 -8 0 -15 9 -15 20 0 25 -18 26 -27 3z"/>
<path d="M1300 7010 c-19 -19 -25 -42 -20 -85 3 -33 30 -55 67 -55 45 0 73 30
73 78 0 70 -74 108 -120 62z m74 -16 c31 -31 11 -104 -28 -104 -39 0 -54 82
-21 106 24 18 30 17 49 -2z"/>
<path d="M1470 7008 c-28 -31 -26 -83 5 -113 28 -29 42 -31 74 -8 24 16 24 16
17 -13 -11 -44 -38 -55 -76 -32 -24 15 -37 4 -20 -17 14 -17 72 -20 101 -5 17
10 19 22 19 110 0 89 -9 124 -23 88 -4 -10 -7 -10 -18 0 -20 19 -56 14 -79
-10z m65 -4 c43 -17 37 -104 -8 -104 -46 0 -64 55 -30 92 19 21 16 20 38 12z"/>
<path d="M1945 7010 c-20 -23 -9 -26 30 -8 21 10 29 9 43 -6 15 -15 15 -18 2
-26 -8 -5 -27 -10 -42 -10 -46 0 -69 -58 -34 -82 17 -12 61 -9 74 4 9 9 12 9
12 0 0 -7 5 -12 10 -12 14 0 13 133 -2 148 -19 19 -73 14 -93 -8z m79 -93 c-8
-22 -42 -31 -60 -16 -18 15 -3 36 29 41 28 5 39 -4 31 -25z"/>
<path d="M2106 7008 c-21 -29 -4 -56 44 -72 37 -12 42 -24 17 -40 -11 -7 -24
-6 -41 4 -31 16 -43 9 -21 -14 23 -22 78 -20 99 3 27 29 12 59 -34 71 -46 12
-55 23 -35 40 13 11 20 10 40 0 29 -16 43 -7 25 15 -19 23 -76 19 -94 -7z"/>
<path d="M2210 5195 c0 -8 7 -15 15 -15 8 0 15 7 15 15 0 8 -7 15 -15 15 -8 0
-15 -7 -15 -15z"/>
<path d="M1150 5095 c0 -87 3 -105 15 -105 11 0 15 12 15 45 l0 45 45 0 c33 0
45 4 45 15 0 11 -12 15 -45 15 -45 0 -45 0 -45 35 l0 35 50 0 c28 0 50 5 50
10 0 6 -28 10 -65 10 l-65 0 0 -105z"/>
<path d="M1320 5095 c0 -87 3 -105 15 -105 12 0 15 18 15 105 0 87 -3 105 -15
105 -12 0 -15 -18 -15 -105z"/>
<path d="M2020 5095 l0 -105 58 0 c32 0 65 6 74 13 27 21 30 52 7 80 -11 15
-16 27 -10 27 19 0 23 41 7 65 -14 22 -24 25 -76 25 l-60 0 0 -105z m106 71
c28 -22 7 -50 -40 -54 -34 -3 -36 -1 -36 26 0 16 3 32 7 35 11 12 48 8 69 -7z
m9 -96 c25 -28 5 -50 -46 -50 -36 0 -39 2 -39 28 0 16 3 32 7 35 13 14 61 6
78 -13z"/>
<path d="M1923 5173 c-4 -10 -11 -22 -17 -26 -8 -6 -7 -10 2 -14 7 -3 12 -25
12 -62 0 -63 11 -81 50 -81 l25 1 -22 18 c-18 15 -23 30 -23 65 0 32 5 48 15
52 8 4 15 10 15 15 0 5 -7 9 -15 9 -8 0 -15 9 -15 20 0 25 -18 26 -27 3z"/>
<path d="M2300 5170 c0 -11 -7 -20 -15 -20 -8 0 -15 -4 -15 -9 0 -5 7 -11 15
-15 11 -4 15 -21 15 -59 0 -55 12 -77 42 -77 22 0 24 16 3 24 -11 4 -15 21
-15 61 0 42 3 55 15 55 8 0 15 5 15 10 0 6 -6 10 -14 10 -7 0 -16 9 -19 20 -3
11 -10 20 -16 20 -6 0 -11 -9 -11 -20z"/>
<path d="M1390 5086 c0 -45 5 -69 16 -80 18 -19 55 -21 72 -4 9 9 12 9 12 0 0
-7 7 -12 15 -12 12 0 15 16 15 80 0 63 -3 80 -15 80 -10 0 -15 -16 -17 -62 -3
-63 -3 -63 -33 -63 -30 0 -30 0 -33 63 -2 46 -7 62 -17 62 -12 0 -15 -15 -15
-64z"/>
<path d="M1581 5124 c-45 -57 -13 -134 54 -134 18 0 41 7 50 16 22 23 11 29
-24 15 -33 -14 -71 -1 -71 24 0 11 13 15 55 15 52 0 55 1 55 25 0 61 -81 87
-119 39z m77 -6 c24 -24 13 -38 -28 -38 -43 0 -49 9 -24 34 19 19 36 20 52 4z"/>
<path d="M1740 5070 c0 -64 3 -80 15 -80 12 0 15 13 15 60 0 65 17 88 52 69
14 -8 18 -22 18 -69 0 -47 3 -60 15 -60 24 0 21 121 -3 143 -22 20 -53 22 -71
5 -11 -10 -14 -10 -18 0 -13 34 -23 4 -23 -68z"/>
<path d="M2210 5070 c0 -64 3 -80 15 -80 12 0 15 16 15 80 0 64 -3 80 -15 80
-12 0 -15 -16 -15 -80z"/>
<path d="M1122 3653 c-17 -48 -34 -96 -37 -105 -5 -13 -2 -18 9 -18 10 0 22
13 27 30 10 27 16 30 51 30 35 0 41 -4 51 -30 11 -29 38 -42 36 -17 0 6 -15
53 -33 102 -25 69 -38 91 -53 93 -17 3 -25 -11 -51 -85z m77 -30 c1 -8 -11
-13 -30 -13 -33 0 -33 3 -7 70 l10 25 13 -35 c8 -19 14 -41 14 -47z"/>
<path d="M1990 3635 c0 -87 3 -105 15 -105 11 0 15 13 15 54 0 36 5 60 16 70
34 34 57 11 62 -63 2 -34 8 -61 13 -61 14 0 11 134 -3 148 -15 15 -61 15 -76
0 -9 -9 -12 -4 -12 25 0 26 -4 37 -15 37 -12 0 -15 -18 -15 -105z"/>
<path d="M1893 3713 c-4 -10 -11 -22 -17 -26 -8 -6 -7 -10 2 -14 7 -3 12 -25
12 -62 0 -63 11 -81 50 -81 l25 1 -22 18 c-18 15 -23 30 -23 65 0 32 5 48 15
52 8 4 15 10 15 15 0 5 -7 9 -15 9 -8 0 -15 9 -15 20 0 25 -18 26 -27 3z"/>
<path d="M1300 3610 c0 -64 3 -80 15 -80 12 0 15 13 15 60 0 65 17 88 52 69
14 -8 18 -22 18 -69 0 -47 3 -60 15 -60 24 0 21 121 -3 143 -22 20 -53 22 -71
5 -11 -10 -14 -10 -18 0 -13 34 -23 4 -23 -68z"/>
<path d="M1455 3674 c27 -69 52 -153 46 -161 -3 -5 -14 -12 -23 -16 -10 -3
-18 -11 -18 -17 0 -12 30 -13 48 -1 12 7 82 179 82 201 0 6 -6 10 -13 10 -8 0
-22 -26 -32 -60 -10 -33 -21 -58 -24 -55 -3 4 -12 29 -21 58 -11 35 -22 53
-34 55 -15 3 -17 0 -11 -14z"/>
<path d="M1721 3664 c-44 -56 -13 -134 53 -134 45 0 71 30 71 82 0 73 -81 106
-124 52z m89 -27 c13 -24 13 -30 0 -54 -19 -33 -42 -40 -64 -18 -21 21 -21 63
1 87 22 24 44 19 63 -15z"/>
<path d="M2190 3670 c-27 -27 -28 -100 -2 -123 23 -21 85 -22 102 -2 18 22 4
31 -24 15 -29 -15 -51 -9 -66 19 -10 20 -8 21 50 21 52 0 60 3 60 19 0 10 -9
30 -21 45 -25 32 -70 35 -99 6z m74 -16 c25 -25 19 -34 -24 -34 -41 0 -52 14
-28 38 16 16 33 15 52 -4z"/>
<path d="M2340 3610 c0 -64 3 -80 15 -80 11 0 15 13 15 53 0 59 7 73 34 78 11
2 21 10 24 17 5 16 -30 16 -46 0 -9 -9 -12 -9 -12 0 0 7 -7 12 -15 12 -12 0
-15 -16 -15 -80z"/>
<path d="M2280 3385 c0 -8 7 -15 15 -15 8 0 15 7 15 15 0 8 -7 15 -15 15 -8 0
-15 -7 -15 -15z"/>
<path d="M840 3285 c0 -87 3 -105 15 -105 12 0 15 18 15 105 0 87 -3 105 -15
105 -12 0 -15 -18 -15 -105z"/>
<path d="M1690 3285 c0 -87 3 -105 15 -105 12 0 15 18 15 105 0 87 -3 105 -15
105 -12 0 -15 -18 -15 -105z"/>
<path d="M1760 3285 c0 -87 3 -105 15 -105 12 0 15 18 15 105 0 87 -3 105 -15
105 -12 0 -15 -18 -15 -105z"/>
<path d="M2183 3363 c-4 -10 -11 -22 -17 -26 -8 -6 -7 -10 2 -14 7 -3 12 -25
12 -62 0 -63 11 -81 50 -81 l25 1 -22 18 c-18 15 -23 30 -23 65 0 32 5 48 15
52 8 4 15 10 15 15 0 5 -7 9 -15 9 -8 0 -15 9 -15 20 0 25 -18 26 -27 3z"/>
<path d="M931 3314 c-44 -56 -13 -134 53 -134 45 0 71 30 71 82 0 73 -81 106
-124 52z m89 -27 c13 -24 13 -30 0 -54 -19 -33 -42 -40 -64 -18 -21 21 -21 63
1 87 22 24 44 19 63 -15z"/>
<path d="M1107 3322 c-20 -22 -23 -91 -4 -115 19 -25 61 -31 81 -12 15 15 16
15 16 -8 0 -44 -28 -55 -82 -32 -13 5 -18 3 -18 -8 0 -31 87 -38 113 -9 24 26
25 202 2 202 -8 0 -15 -5 -15 -12 0 -9 -3 -9 -12 0 -18 18 -63 14 -81 -6z m75
-19 c20 -18 24 -63 6 -81 -21 -21 -58 -14 -68 13 -14 37 5 78 39 84 3 1 13 -6
23 -16z"/>
<path d="M1361 3314 c-45 -57 -13 -134 54 -134 24 0 39 7 50 22 19 28 2 37
-24 14 -22 -20 -35 -20 -55 0 -22 21 -20 67 4 89 18 17 21 17 45 1 36 -24 54
-15 27 12 -31 31 -75 29 -101 -4z"/>
<path d="M1530 3320 c-19 -19 -25 -42 -20 -85 3 -33 30 -55 67 -55 45 0 73 30
73 78 0 70 -74 108 -120 62z m74 -16 c31 -31 11 -104 -28 -104 -39 0 -54 82
-21 106 24 18 30 17 49 -2z"/>
<path d="M1850 3320 c-27 -27 -28 -100 -2 -123 23 -21 85 -22 102 -2 18 22 4
31 -24 15 -29 -15 -51 -9 -66 19 -10 20 -8 21 50 21 52 0 60 3 60 19 0 10 -9
30 -21 45 -25 32 -70 35 -99 6z m74 -16 c25 -25 19 -34 -24 -34 -41 0 -52 14
-28 38 16 16 33 15 52 -4z"/>
<path d="M2021 3314 c-45 -57 -13 -134 54 -134 24 0 39 7 50 22 19 28 2 37
-24 14 -22 -20 -35 -20 -55 0 -22 21 -20 67 4 89 18 17 21 17 45 1 36 -24 54
-15 27 12 -31 31 -75 29 -101 -4z"/>
<path d="M2280 3260 c0 -64 3 -80 15 -80 12 0 15 16 15 80 0 64 -3 80 -15 80
-12 0 -15 -16 -15 -80z"/>
<path d="M2370 3320 c-19 -19 -25 -42 -20 -85 3 -33 30 -55 67 -55 45 0 73 30
73 78 0 70 -74 108 -120 62z m74 -16 c31 -31 11 -104 -28 -104 -39 0 -54 82
-21 106 24 18 30 17 49 -2z"/>
<path d="M2530 3260 c0 -64 3 -80 15 -80 12 0 15 13 15 60 0 65 17 88 52 69
14 -8 18 -22 18 -69 0 -47 3 -60 15 -60 24 0 21 121 -3 143 -22 20 -53 22 -71
5 -11 -10 -14 -10 -18 0 -13 34 -23 4 -23 -68z"/>
<path d="M1030 3035 c0 -8 7 -15 15 -15 8 0 15 7 15 15 0 8 -7 15 -15 15 -8 0
-15 -7 -15 -15z"/>
<path d="M1220 2935 c0 -87 3 -105 15 -105 12 0 15 13 15 60 0 65 17 88 52 69
14 -8 18 -22 18 -69 0 -47 3 -60 15 -60 22 0 21 122 -1 144 -18 19 -55 21 -72
4 -9 -9 -12 -4 -12 25 0 26 -4 37 -15 37 -12 0 -15 -18 -15 -105z"/>
<path d="M1470 2935 c0 -87 3 -105 15 -105 11 0 15 13 15 54 0 36 5 60 16 70
34 34 57 11 62 -63 2 -34 8 -61 13 -61 14 0 11 134 -3 148 -15 15 -61 15 -76
0 -9 -9 -12 -4 -12 25 0 26 -4 37 -15 37 -12 0 -15 -18 -15 -105z"/>
<path d="M2450 2935 c0 -87 3 -105 15 -105 12 0 15 18 15 105 0 87 -3 105 -15
105 -12 0 -15 -18 -15 -105z"/>
<path d="M2520 2935 c0 -87 3 -105 15 -105 12 0 15 18 15 105 0 87 -3 105 -15
105 -12 0 -15 -18 -15 -105z"/>
<path d="M1120 3010 c0 -11 -7 -20 -15 -20 -8 0 -15 -4 -15 -9 0 -5 7 -11 15
-15 11 -4 15 -21 15 -59 0 -55 12 -77 42 -77 22 0 24 16 3 24 -11 4 -15 21
-15 61 0 42 3 55 15 55 8 0 15 5 15 10 0 6 -6 10 -14 10 -7 0 -16 9 -19 20 -3
11 -10 20 -16 20 -6 0 -11 -9 -11 -20z"/>
<path d="M1660 3010 c0 -11 -7 -20 -15 -20 -8 0 -15 -4 -15 -9 0 -5 7 -11 15
-15 11 -4 15 -21 15 -59 0 -55 12 -77 42 -77 22 0 24 16 3 24 -11 4 -15 21
-15 61 0 42 3 55 15 55 8 0 15 5 15 10 0 6 -6 10 -14 10 -7 0 -16 9 -19 20 -3
11 -10 20 -16 20 -6 0 -11 -9 -11 -20z"/>
<path d="M1763 3013 c-4 -10 -11 -22 -17 -26 -8 -6 -7 -10 2 -14 7 -3 12 -25
12 -62 0 -63 11 -81 50 -81 l25 1 -22 18 c-18 15 -23 30 -23 65 0 32 5 48 15
52 8 4 15 10 15 15 0 5 -7 9 -15 9 -8 0 -15 9 -15 20 0 25 -18 26 -27 3z"/>
<path d="M784 2974 c3 -8 14 -44 23 -80 22 -82 45 -87 63 -14 7 28 15 52 19
55 5 2 14 -20 21 -50 19 -80 42 -75 65 13 10 37 20 73 23 80 2 6 -3 12 -11 12
-9 0 -19 -18 -27 -47 -19 -69 -25 -70 -39 -8 -9 41 -17 55 -30 55 -13 0 -21
-14 -30 -55 -7 -30 -17 -53 -22 -50 -5 4 -9 12 -9 18 0 34 -22 87 -37 87 -10
0 -13 -6 -9 -16z"/>
<path d="M1030 2910 c0 -64 3 -80 15 -80 12 0 15 16 15 80 0 64 -3 80 -15 80
-12 0 -15 -16 -15 -80z"/>
<path d="M1860 2880 c0 -91 3 -110 15 -110 11 0 15 11 15 42 0 33 3 39 12 30
18 -18 63 -14 83 8 11 12 18 35 18 60 0 25 -7 48 -18 60 -22 25 -70 26 -84 3
-10 -17 -10 -17 -11 0 0 9 -7 17 -15 17 -12 0 -15 -19 -15 -110z m100 70 c24
-24 25 -48 4 -78 -18 -26 -31 -28 -56 -5 -22 20 -23 61 -1 85 21 23 28 23 53
-2z"/>
<path d="M2131 2964 c-45 -57 -13 -134 54 -134 24 0 39 7 50 22 19 28 2 37
-24 14 -22 -20 -35 -20 -55 0 -22 21 -20 67 4 89 18 17 21 17 45 1 36 -24 54
-15 27 12 -31 31 -75 29 -101 -4z"/>
<path d="M2304 2976 c-25 -18 -10 -34 17 -18 26 16 61 6 57 -16 -2 -10 -17
-19 -38 -22 -48 -8 -60 -17 -60 -44 0 -29 18 -46 50 -46 14 0 31 5 38 12 9 9
12 9 12 0 0 -7 7 -12 15 -12 22 0 21 122 -1 144 -19 20 -64 21 -90 2z m65
-112 c-17 -21 -54 -14 -54 11 0 14 9 21 30 25 34 6 45 -11 24 -36z"/>
<path d="M2606 2968 c-21 -29 -4 -56 44 -72 37 -12 42 -24 17 -40 -11 -7 -24
-6 -41 4 -31 16 -43 9 -21 -14 23 -22 78 -20 99 3 27 29 12 59 -34 71 -46 12
-55 23 -35 40 13 11 20 10 40 0 29 -16 43 -7 25 15 -19 23 -76 19 -94 -7z"/>
<path d="M8005 9398 c-24 -14 -35 -28 -35 -48 0 -9 12 -3 32 17 34 35 36 48 3
31z"/>
<path d="M8710 9356 c0 -50 2 -54 27 -61 21 -5 32 -2 45 15 10 12 18 26 18 31
0 18 -40 48 -55 43 -10 -4 -15 0 -15 10 0 9 -4 16 -10 16 -5 0 -10 -24 -10
-54z m60 -16 c0 -11 -6 -20 -14 -20 -18 0 -29 16 -21 30 11 18 35 11 35 -10z"/>
<path d="M8810 9355 c0 -42 3 -55 15 -55 12 0 15 13 15 55 0 42 -3 55 -15 55
-12 0 -15 -13 -15 -55z"/>
<path d="M8163 9383 c-21 -4 -23 -10 -23 -59 0 -30 5 -54 10 -54 6 0 10 7 10
16 0 10 6 13 18 10 23 -8 55 25 50 50 -4 22 -38 41 -65 37z m37 -43 c0 -13 -7
-20 -20 -20 -13 0 -20 7 -20 20 0 13 7 20 20 20 13 0 20 -7 20 -20z"/>
<path d="M8270 9382 c-20 -7 -30 -23 -30 -49 0 -28 26 -43 63 -36 24 5 27 10
27 43 0 31 -4 38 -23 42 -12 2 -29 2 -37 0z m35 -42 c0 -8 -8 -16 -17 -18 -13
-2 -18 3 -18 18 0 15 5 20 18 18 9 -2 17 -10 17 -18z"/>
<path d="M8373 9382 c-19 -3 -23 -10 -23 -43 0 -21 5 -39 10 -39 6 0 10 8 10
17 0 9 7 24 16 34 21 23 15 35 -13 31z"/>
<path d="M8425 9373 c-16 -16 -16 -18 5 -35 22 -18 22 -18 1 -18 -26 0 -28
-17 -2 -25 43 -13 74 25 38 50 -18 12 -19 15 -4 15 21 0 22 16 1 24 -21 8 -20
8 -39 -11z"/>
<path d="M8523 9379 c-31 -11 -32 -63 -3 -79 23 -13 64 -4 54 11 -3 6 -12 8
-18 6 -7 -3 -19 -1 -27 4 -10 6 -5 9 17 9 38 0 46 7 34 30 -13 23 -30 29 -57
19z m34 -25 c-3 -3 -12 -4 -19 -1 -8 3 -5 6 6 6 11 1 17 -2 13 -5z"/>
<path d="M8616 9378 c-22 -12 -20 -65 2 -77 9 -5 30 -7 45 -4 24 5 27 10 27
43 0 34 -3 38 -29 42 -17 2 -37 0 -45 -4z m44 -38 c0 -11 -6 -20 -14 -20 -18
0 -29 16 -21 30 11 18 35 11 35 -10z"/>
<path d="M8870 9372 c-41 -33 -6 -95 44 -76 23 9 20 27 -4 21 -11 -3 -23 -1
-26 4 -3 5 9 9 26 9 37 0 39 24 4 47 -19 12 -24 11 -44 -5z m37 -18 c-3 -3
-12 -4 -19 -1 -8 3 -5 6 6 6 11 1 17 -2 13 -5z"/>
<path d="M8035 9330 c-21 -22 -36 -43 -32 -47 8 -7 87 65 87 79 0 17 -17 7
-55 -32z"/>
<path d="M8066 9311 c-16 -17 -27 -33 -24 -36 9 -9 61 40 57 54 -3 7 -15 1
-33 -18z"/>
<path d="M7975 9320 c-3 -5 1 -10 9 -10 9 0 16 5 16 10 0 6 -4 10 -9 10 -6 0
-13 -4 -16 -10z"/>
<path d="M15138 8770 c-19 -12 -34 -54 -44 -125 -3 -27 -10 -57 -15 -66 -4 -9
-41 -26 -81 -39 -92 -28 -118 -44 -118 -74 0 -29 21 -48 84 -75 l48 -21 41 23
40 22 -57 25 c-31 13 -56 27 -56 30 0 3 34 15 75 28 60 18 76 27 79 45 3 12
10 48 16 80 6 31 13 57 15 57 2 0 20 -27 40 -60 20 -33 42 -60 48 -60 7 0 43
8 80 19 37 10 67 16 67 13 0 -3 -17 -26 -38 -51 -20 -25 -43 -54 -50 -63 -11
-14 -8 -26 17 -77 17 -33 31 -65 31 -70 0 -5 -23 -2 -51 6 -28 8 -52 13 -54
11 -1 -1 0 -17 2 -34 5 -29 10 -33 71 -51 75 -23 99 -20 114 12 8 18 2 37 -32
104 l-41 83 49 57 c85 98 97 118 82 136 -16 20 -36 19 -122 -5 -40 -11 -80
-20 -90 -20 -10 0 -30 23 -49 57 -33 57 -63 93 -76 93 -5 0 -16 -5 -25 -10z"/>
<path d="M14200 8420 c-24 -47 -25 -57 -4 -39 12 10 20 10 35 1 22 -14 23 -7
13 47 -9 41 -19 39 -44 -9z"/>
<path d="M14316 8448 c-11 -36 -14 -78 -6 -78 6 0 10 6 10 13 0 7 10 17 23 22
29 13 29 49 -1 53 -12 2 -24 -3 -26 -10z m34 -18 c0 -5 -4 -10 -10 -10 -5 0
-10 5 -10 10 0 6 5 10 10 10 6 0 10 -4 10 -10z"/>
<path d="M14420 8420 c-24 -47 -25 -57 -4 -39 12 10 20 10 35 1 22 -14 23 -7
13 47 -9 41 -19 39 -44 -9z"/>
<path d="M14523 8434 c-12 -19 -14 -30 -6 -43 12 -18 53 -28 53 -12 0 6 -6 11
-14 11 -8 0 -17 4 -20 9 -10 16 5 41 25 41 10 0 19 5 19 10 0 20 -40 9 -57
-16z"/>
<path d="M14636 8438 c-3 -13 -5 -34 -5 -48 l0 -25 11 23 c13 26 45 25 40 -1
-2 -9 1 -17 7 -17 11 0 26 78 17 88 -4 3 -9 -4 -13 -16 -3 -13 -13 -22 -25
-22 -15 0 -19 5 -15 20 3 11 2 20 -3 20 -4 0 -10 -10 -14 -22z"/>
<path d="M14765 8433 c-4 -16 -8 -36 -10 -45 -2 -13 3 -18 21 -18 13 0 24 5
24 10 0 6 -4 10 -10 10 -17 0 -11 18 8 23 16 4 16 5 0 6 -21 1 -24 21 -4 21 8
0 18 5 21 10 4 6 -5 10 -19 10 -20 0 -27 -6 -31 -27z"/>
<path d="M13931 8398 c-19 -13 -44 -38 -54 -56 -29 -49 -17 -87 53 -165 33
-38 60 -71 60 -75 0 -4 -7 -18 -16 -30 -21 -31 -67 -29 -92 3 l-20 25 -36 -21
c-32 -18 -34 -23 -25 -42 20 -39 41 -57 75 -63 106 -20 210 72 189 166 -4 16
-33 59 -66 95 -32 36 -59 69 -59 74 0 15 30 41 46 41 8 0 25 -11 37 -24 l23
-24 33 27 33 27 -24 28 c-35 41 -109 47 -157 14z"/>
<path d="M15069 8376 l-36 -25 -22 -168 c-12 -92 -24 -176 -26 -185 -2 -15 4
-18 35 -18 43 0 41 -5 58 119 l7 54 58 -86 57 -87 46 0 c52 0 55 -9 -33 112
-35 48 -63 91 -63 96 0 4 18 26 40 47 33 32 40 46 40 77 0 21 -4 38 -9 38 -5
0 -34 -29 -66 -65 -32 -36 -59 -65 -60 -63 -1 2 3 42 10 91 6 48 9 87 6 87 -4
0 -23 -11 -42 -24z"/>
<path d="M13130 8285 l34 -35 -405 0 c-302 0 -408 -3 -417 -12 -9 -9 -12 -235
-12 -955 l0 -943 -1397 0 -1398 0 -23 83 c-81 295 -308 560 -594 692 -609 281
-1337 -48 -1522 -688 -175 -604 173 -1221 782 -1385 88 -23 114 -26 277 -26
163 0 189 3 277 26 378 102 675 392 783 764 34 118 51 294 39 407 l-10 87
1393 0 1393 0 0 -1111 c0 -949 2 -1113 14 -1125 12 -12 79 -14 397 -14 l383 0
-27 -28 c-32 -33 -34 -42 -9 -42 10 0 37 19 60 43 l42 43 -43 42 c-23 23 -51
42 -62 42 -17 0 -16 -3 8 -28 15 -15 27 -31 27 -35 0 -4 -168 -6 -372 -5
l-373 3 -3 1108 -2 1107 427 0 427 0 -29 -30 -29 -30 25 0 c16 0 39 15 64 40
l39 40 -39 40 c-25 25 -48 40 -64 40 l-25 0 29 -30 29 -30 -427 0 -427 0 2
938 3 937 393 3 c215 1 392 -1 392 -5 0 -4 -12 -20 -27 -35 -24 -26 -25 -28
-7 -28 11 0 39 19 62 43 l42 43 -43 42 c-26 26 -52 42 -67 42 -23 0 -23 -1 10
-35z m-4699 -1295 c11 -7 19 -21 19 -38 0 -22 -69 -96 -392 -419 -283 -283
-399 -393 -415 -393 -13 0 -29 10 -38 23 -13 21 -14 33 0 108 35 200 117 352
268 495 114 109 257 184 412 217 85 19 120 20 146 7z m418 -80 c27 -13 46 -33
60 -63 24 -49 26 -79 8 -119 -15 -35 -554 -577 -585 -589 -35 -14 -90 -11
-127 7 -39 18 -65 53 -76 101 -16 75 -4 91 284 382 150 150 286 279 302 287
43 19 90 17 134 -6z m337 -336 c19 -9 44 -30 56 -47 28 -39 35 -114 15 -153
-9 -16 -244 -257 -524 -536 -472 -470 -511 -507 -549 -513 -44 -7 -102 11
-136 42 -29 26 -51 97 -44 140 7 34 66 97 509 542 276 276 516 512 532 522 37
23 96 24 141 3z m135 -475 c18 -18 20 -28 14 -77 -41 -332 -275 -616 -591
-721 -110 -37 -225 -51 -249 -31 -43 35 -31 49 378 458 216 215 400 392 410
392 9 0 26 -9 38 -21z m-1332 -34 c73 -37 105 -115 77 -189 -23 -60 -157 -190
-212 -205 -77 -21 -150 18 -179 94 -28 73 -16 106 73 198 42 44 91 88 107 98
36 23 95 24 134 4z"/>
<path d="M14227 8296 c-87 -32 -119 -88 -141 -249 -22 -163 -23 -157 19 -157
33 0 35 2 35 33 0 17 3 42 6 54 6 20 7 21 42 6 105 -44 242 57 242 179 0 105
-101 172 -203 134z m104 -85 c31 -32 36 -64 17 -105 -26 -58 -109 -77 -154
-35 -59 55 0 167 89 169 10 0 32 -13 48 -29z"/>
<path d="M14570 8288 c-65 -34 -102 -86 -108 -151 -7 -83 28 -134 106 -156 26
-8 97 0 107 11 1 1 6 23 10 47 l7 44 -23 -17 c-35 -24 -85 -20 -114 9 -69 68
27 194 120 159 33 -13 48 -63 40 -138 -3 -39 -9 -81 -12 -93 -5 -21 -1 -23 30
-23 41 0 43 6 53 145 7 89 6 91 -22 124 -52 63 -120 76 -194 39z"/>
<path d="M14890 8285 c-14 -7 -31 -24 -38 -37 -9 -18 -42 -219 -42 -258 0 -6
15 -10 34 -10 38 0 36 -6 56 150 12 87 19 100 56 100 20 0 33 23 34 58 0 16
-68 15 -100 -3z"/>
<path d="M15351 7994 c0 -11 3 -14 6 -6 3 7 2 16 -1 19 -3 4 -6 -2 -5 -13z"/>
<path d="M8417 7842 c-22 -22 -37 -48 -37 -62 l0 -24 30 29 30 29 0 -267 c0
-231 2 -267 15 -267 13 0 15 36 15 265 0 146 3 265 7 265 4 0 20 -12 35 -27
l28 -27 0 25 c0 16 -14 39 -38 62 -21 20 -40 37 -43 37 -3 0 -22 -17 -42 -38z"/>
<path d="M10002 6978 c-8 -8 -12 -68 -12 -204 0 -157 3 -194 15 -204 13 -11
15 13 17 186 l3 199 115 5 c98 4 112 7 93 18 -29 16 -214 17 -231 0z"/>
<path d="M4962 6968 c-13 -13 -18 -381 -6 -412 17 -45 24 3 26 187 l3 202 124
3 c110 2 122 4 105 17 -25 19 -234 21 -252 3z"/>
<path d="M10066 6914 c-13 -13 -16 -46 -16 -203 0 -132 4 -191 12 -199 8 -8
61 -12 173 -12 112 0 165 4 173 12 18 18 16 261 -2 296 -15 29 -65 78 -106
105 -34 24 -211 24 -234 1z m264 -69 l23 -25 -26 0 c-22 0 -27 5 -27 25 0 14
1 25 3 25 2 0 14 -11 27 -25z m58 -302 c3 -10 -31 -13 -147 -13 -137 0 -172 5
-154 24 4 4 72 5 152 4 104 -2 146 -6 149 -15z"/>
<path d="M5032 6908 c-9 -9 -12 -71 -12 -219 0 -179 2 -208 16 -213 31 -12
339 -7 352 6 8 8 12 57 12 154 l0 142 -51 57 c-29 31 -65 63 -80 70 -36 19
-219 21 -237 3z m268 -73 l23 -25 -26 0 c-22 0 -27 5 -27 25 0 14 1 25 3 25 2
0 14 -11 27 -25z m68 -317 c-4 -10 -44 -13 -158 -13 -114 0 -154 3 -157 13 -4
9 32 12 157 12 125 0 161 -3 158 -12z"/>
<path d="M5530 6750 l0 -90 60 0 c47 0 60 3 60 15 0 11 -11 15 -40 15 l-40 0
0 75 c0 68 -2 75 -20 75 -19 0 -20 -7 -20 -90z"/>
<path d="M6040 6750 l0 -90 50 0 c69 0 100 30 100 94 0 59 -31 86 -101 86
l-49 0 0 -90z m104 38 c9 -12 16 -30 16 -40 0 -24 -35 -58 -60 -58 -18 0 -20
7 -20 60 0 57 1 60 24 60 14 0 32 -10 40 -22z"/>
<path d="M10600 6750 c0 -83 1 -90 20 -90 16 0 20 7 20 30 0 27 3 30 30 30 34
0 70 31 70 60 0 37 -35 60 -90 60 l-50 0 0 -90z m95 30 c0 -20 -6 -26 -27 -28
-25 -3 -28 0 -28 28 0 28 3 31 28 28 21 -2 27 -8 27 -28z"/>
<path d="M6380 6816 c0 -8 -6 -16 -12 -19 -10 -3 -10 -9 -1 -28 7 -13 14 -42
15 -64 3 -35 6 -40 31 -43 28 -3 38 15 12 24 -10 4 -15 20 -15 45 0 28 4 39
15 39 8 0 15 7 15 15 0 8 -7 15 -15 15 -8 0 -15 7 -15 15 0 8 -7 15 -15 15 -8
0 -15 -6 -15 -14z"/>
<path d="M11470 6815 c0 -8 -4 -15 -10 -15 -5 0 -10 -7 -10 -15 0 -8 5 -15 10
-15 6 0 10 -19 10 -43 0 -24 5 -48 12 -55 17 -17 48 -15 48 3 0 8 -4 15 -10
15 -5 0 -10 18 -10 40 0 22 5 40 10 40 6 0 10 7 10 15 0 8 -4 15 -10 15 -5 0
-10 7 -10 15 0 8 -9 15 -20 15 -11 0 -20 -7 -20 -15z"/>
<path d="M5692 6784 c-27 -18 -31 -84 -6 -108 37 -38 114 -4 114 49 0 30 -41
75 -67 75 -10 0 -29 -7 -41 -16z m63 -54 c0 -29 -4 -36 -22 -38 -17 -3 -24 3
-29 22 -7 30 11 58 35 54 11 -2 16 -14 16 -38z"/>
<path d="M5840 6780 c-11 -11 -20 -33 -20 -50 0 -29 29 -70 51 -70 6 0 19 5
30 10 15 8 19 7 19 -3 0 -26 -26 -40 -50 -27 -17 9 -25 9 -33 1 -16 -16 9 -31
54 -31 52 0 59 13 59 107 0 67 -3 83 -15 83 -8 0 -15 -5 -15 -10 0 -7 -6 -7
-19 0 -28 14 -38 13 -61 -10z m70 -30 c14 -26 -4 -63 -28 -58 -18 3 -28 39
-18 64 8 20 34 17 46 -6z"/>
<path d="M6239 6779 l-24 -20 37 6 c21 3 39 1 43 -5 6 -10 -1 -14 -46 -24 -29
-6 -42 -34 -27 -59 6 -12 22 -16 58 -16 l50 2 0 58 c0 47 -4 60 -19 69 -29 15
-46 12 -72 -11z m61 -68 c0 -5 -7 -14 -15 -21 -18 -15 -42 1 -31 19 8 13 46
15 46 2z"/>
<path d="M6488 6789 c-31 -18 -21 -32 17 -25 28 6 35 4 35 -9 0 -8 -9 -15 -21
-15 -31 0 -59 -18 -59 -39 0 -28 21 -39 73 -39 l47 1 0 53 c0 74 -38 105 -92
73z m52 -83 c0 -17 -27 -29 -35 -16 -4 6 -3 15 0 20 9 15 35 12 35 -4z"/>
<path d="M10778 6789 c-31 -18 -21 -32 17 -25 28 6 35 4 35 -9 0 -8 -9 -15
-21 -15 -31 0 -59 -18 -59 -39 0 -28 21 -39 73 -39 l47 1 0 53 c0 74 -38 105
-92 73z m52 -83 c0 -17 -27 -29 -35 -16 -4 6 -3 15 0 20 9 15 35 12 35 -4z"/>
<path d="M10900 6729 c0 -62 2 -69 20 -69 17 0 20 7 20 49 0 41 4 51 20 56 35
11 23 31 -20 32 l-40 2 0 -70z"/>
<path d="M11010 6780 c-24 -24 -26 -67 -4 -99 14 -19 23 -22 50 -18 32 5 34 4
34 -24 0 -19 5 -29 15 -29 12 0 15 17 15 95 0 78 -3 95 -15 95 -8 0 -15 -5
-15 -10 0 -7 -6 -7 -19 0 -28 14 -38 13 -61 -10z m70 -30 c16 -30 3 -62 -23
-58 -35 5 -37 78 -3 78 9 0 20 -9 26 -20z"/>
<path d="M11160 6742 c0 -62 11 -82 45 -82 12 0 26 5 33 12 9 9 12 9 12 0 0
-7 7 -12 15 -12 12 0 15 14 15 70 0 63 -2 70 -19 70 -17 0 -20 -8 -23 -52 -3
-45 -6 -53 -23 -53 -17 0 -20 8 -23 53 -2 37 -7 52 -18 52 -10 0 -14 -14 -14
-58z"/>
<path d="M11332 6784 c-27 -18 -31 -84 -6 -108 20 -20 78 -21 94 -1 18 21 5
30 -23 18 -15 -7 -29 -7 -40 -1 -30 16 -18 28 28 28 41 0 45 2 45 24 0 26 -33
56 -60 56 -9 0 -26 -7 -38 -16z m66 -31 c2 -9 -7 -13 -27 -13 -23 0 -29 4 -24
16 6 17 44 15 51 -3z"/>
<path d="M15030 6480 c0 -13 7 -20 20 -20 13 0 20 7 20 20 0 13 -7 20 -20 20
-13 0 -20 -7 -20 -20z"/>
<path d="M15107 6406 c-3 -8 1 -20 9 -27 12 -10 18 -9 31 3 8 9 12 21 9 27
-10 16 -43 14 -49 -3z"/>
<path d="M15434 6409 c-3 -6 -2 -15 3 -20 5 -5 9 -1 10 11 2 22 -2 25 -13 9z"/>
<path d="M15464 6396 c1 -8 5 -18 8 -22 4 -3 5 1 4 10 -1 8 -5 18 -8 22 -4 3
-5 -1 -4 -10z"/>
<path d="M15184 6325 c-4 -9 -2 -21 4 -27 16 -16 47 -5 47 17 0 26 -42 34 -51
10z"/>
<path d="M15514 6328 c-4 -7 -3 -8 4 -4 7 4 12 1 12 -9 0 -10 -5 -14 -12 -9
-10 5 -10 3 0 -7 11 -12 14 -12 21 0 10 16 4 41 -9 41 -5 0 -12 -5 -16 -12z"/>
<path d="M15550 6330 c0 -5 5 -10 11 -10 5 0 7 5 4 10 -3 6 -8 10 -11 10 -2 0
-4 -4 -4 -10z"/>
<path d="M14538 6258 c-2 -25 -8 -34 -25 -36 -32 -5 -30 -32 2 -32 l25 0 0
-105 c0 -95 2 -105 20 -115 32 -17 84 -9 88 14 3 15 0 18 -18 13 -45 -12 -50
-1 -50 99 l0 94 35 0 c32 0 40 7 33 27 -2 4 -18 6 -35 4 -32 -2 -33 -1 -33 33
0 29 -4 36 -19 36 -15 0 -21 -8 -23 -32z"/>
<path d="M15604 6248 c-19 -21 -19 -21 5 -8 18 9 25 9 31 0 5 -8 10 -9 14 -2
4 6 -2 16 -12 21 -15 8 -24 6 -38 -11z"/>
<path d="M15264 6245 c-9 -23 3 -45 24 -45 11 0 25 7 32 15 16 19 -3 45 -32
45 -10 0 -21 -7 -24 -15z"/>
<path d="M13690 6221 c-8 -6 -27 -7 -42 -4 l-28 6 0 -177 c0 -169 1 -176 20
-176 17 0 20 7 20 49 l0 48 60 -1 c73 -1 86 10 102 85 16 75 -2 143 -43 164
-32 17 -67 19 -89 6z m70 -43 c29 -32 29 -135 -1 -167 -16 -17 -28 -21 -48
-16 -47 12 -52 23 -49 104 3 69 5 77 28 88 35 18 46 16 70 -9z"/>
<path d="M13963 6215 c-18 -8 -33 -10 -33 -5 0 6 -9 10 -20 10 -19 0 -20 -7
-20 -125 0 -118 1 -125 20 -125 19 0 20 7 20 94 l0 94 44 18 c33 14 42 22 38
36 -5 21 -7 21 -49 3z"/>
<path d="M14093 6218 c-80 -39 -66 -235 19 -252 67 -13 132 2 122 28 -4 11
-13 12 -37 5 -18 -5 -39 -9 -48 -9 -23 0 -56 30 -64 58 -6 22 -5 22 79 22 l86
0 0 35 c0 95 -78 151 -157 113z m90 -35 c8 -10 17 -29 19 -43 3 -24 1 -25 -59
-28 -56 -3 -63 -1 -63 16 0 29 38 72 64 72 13 0 30 -8 39 -17z"/>
<path d="M14330 6223 c-40 -14 -52 -71 -25 -110 8 -12 38 -29 65 -38 42 -14
50 -21 50 -41 0 -32 -39 -48 -85 -35 -31 8 -45 1 -45 -24 0 -11 93 -15 123 -6
79 26 62 132 -23 146 -47 8 -67 34 -49 66 9 18 17 20 55 14 35 -5 44 -3 44 8
0 8 -7 18 -16 21 -19 7 -73 7 -94 -1z"/>
<path d="M14738 6207 c-15 -12 -32 -35 -38 -50 -25 -70 1 -167 51 -187 36 -15
95 -7 120 16 27 24 42 89 34 143 -13 89 -103 131 -167 78z m88 -15 c33 -22 46
-115 23 -166 -23 -51 -90 -39 -109 19 -28 86 29 185 86 147z"/>
<path d="M15606 6207 c10 -5 24 -5 36 0 17 7 14 9 -16 9 -27 0 -32 -2 -20 -9z"/>
<path d="M15350 6171 c-12 -23 -5 -47 17 -55 33 -13 57 36 31 62 -18 18 -36
15 -48 -7z"/>
<path d="M15194 6159 c-3 -6 -1 -16 5 -22 9 -9 10 -7 5 7 -5 13 -4 17 4 12 7
-4 12 -2 12 3 0 14 -17 14 -26 0z"/>
<path d="M15432 6098 c-25 -25 -6 -68 30 -68 23 0 38 30 27 58 -9 24 -38 29
-57 10z"/>
<path d="M15120 6080 c0 -5 -1 -13 -2 -17 -2 -3 4 -7 13 -8 12 -2 15 3 12 16
-6 20 -23 27 -23 9z"/>
<path d="M15275 6081 c-9 -15 8 -35 24 -30 8 3 7 10 -2 23 -10 14 -16 16 -22
7z"/>
<path d="M15199 6008 c-8 -28 -5 -38 12 -38 17 0 18 3 9 20 -9 18 -18 25 -21
18z"/>
<path d="M15056 5987 c3 -10 9 -15 12 -12 3 3 0 11 -7 18 -10 9 -11 8 -5 -6z"/>
<path d="M8412 4947 c-26 -26 -42 -52 -42 -67 l0 -24 28 27 c15 15 31 27 35
27 4 0 7 -412 7 -915 0 -503 -3 -915 -7 -915 -4 0 -20 12 -35 27 -25 24 -28
25 -28 8 0 -11 19 -39 42 -62 l42 -43 43 42 c24 23 43 50 43 60 0 25 -9 23
-42 -9 l-28 -27 0 924 0 924 35 -34 c35 -34 35 -34 35 -9 0 16 -15 40 -43 67
l-43 42 -42 -43z"/>
<path d="M14265 4524 c-40 -43 -32 -136 14 -171 22 -17 82 -16 108 2 48 33 54
127 11 172 -32 34 -100 32 -133 -3z m102 -9 c28 -19 39 -75 22 -106 -16 -31
-28 -39 -61 -39 -58 0 -81 100 -32 139 32 25 43 26 71 6z"/>
<path d="M14580 4445 c0 -87 3 -105 15 -105 12 0 15 13 15 60 0 65 17 88 52
69 14 -8 18 -22 18 -69 0 -47 3 -60 15 -60 22 0 21 122 -1 144 -18 19 -55 21
-72 4 -9 -9 -12 -4 -12 25 0 26 -4 37 -15 37 -12 0 -15 -18 -15 -105z"/>
<path d="M14480 4520 c0 -11 -7 -20 -15 -20 -8 0 -15 -4 -15 -9 0 -5 7 -11 15
-15 11 -4 15 -21 15 -65 0 -57 2 -61 25 -67 32 -8 46 4 22 17 -23 13 -25 119
-2 119 8 0 15 5 15 10 0 6 -7 10 -15 10 -8 0 -15 9 -15 20 0 11 -7 20 -15 20
-8 0 -15 -9 -15 -20z"/>
<path d="M14777 4488 c-37 -29 -42 -93 -9 -130 19 -23 85 -24 102 -3 18 22 4
31 -24 15 -29 -15 -51 -9 -66 19 -10 20 -8 21 50 21 52 0 60 3 60 19 0 10 -9
30 -21 45 -22 29 -64 35 -92 14z m67 -24 c25 -25 19 -34 -24 -34 -43 0 -55 20
-22 39 23 14 28 14 46 -5z"/>
<path d="M14920 4420 c0 -64 3 -80 15 -80 11 0 15 12 15 49 0 65 7 81 36 81
15 0 24 6 24 15 0 18 -31 20 -48 3 -9 -9 -12 -9 -12 0 0 7 -7 12 -15 12 -12 0
-15 -16 -15 -80z"/>
<path d="M14887 4203 c-13 -12 -7 -23 13 -23 11 0 20 7 20 15 0 15 -21 21 -33
8z"/>
<path d="M14049 4173 c-61 -157 -68 -183 -50 -183 9 0 21 13 28 30 10 26 16
30 51 30 35 0 41 -3 51 -30 5 -17 17 -30 27 -30 9 0 14 6 12 13 -3 6 -20 54
-38 105 -26 72 -37 92 -52 92 -11 0 -23 -11 -29 -27z m55 -80 c7 -20 4 -23
-23 -23 -35 0 -35 -1 -19 52 11 39 12 39 24 16 6 -13 15 -33 18 -45z"/>
<path d="M14540 4095 c0 -87 3 -105 15 -105 12 0 15 18 15 105 0 87 -3 105
-15 105 -12 0 -15 -18 -15 -105z"/>
<path d="M14790 4170 c0 -11 -7 -20 -15 -20 -8 0 -15 -4 -15 -9 0 -5 7 -11 15
-15 11 -4 15 -21 15 -65 0 -57 2 -61 25 -67 32 -8 46 4 22 17 -23 13 -25 119
-2 119 8 0 15 5 15 10 0 6 -7 10 -15 10 -8 0 -15 9 -15 20 0 11 -7 20 -15 20
-8 0 -15 -9 -15 -20z"/>
<path d="M14200 4070 c0 -64 3 -80 15 -80 11 0 15 13 15 54 0 64 19 92 51 76
15 -9 19 -22 19 -70 0 -47 3 -60 15 -60 12 0 15 14 15 68 0 40 -5 73 -12 80
-15 15 -61 15 -76 0 -9 -9 -12 -9 -12 0 0 7 -7 12 -15 12 -12 0 -15 -16 -15
-80z"/>
<path d="M14394 4136 c-26 -19 -11 -32 21 -18 14 6 32 9 40 6 25 -10 17 -33
-12 -40 -55 -11 -73 -23 -73 -47 0 -30 18 -47 50 -47 14 0 31 5 38 12 9 9 12
9 12 0 0 -7 7 -12 15 -12 22 0 21 122 -1 144 -19 20 -64 21 -90 2z m65 -112
c-17 -21 -54 -14 -54 11 0 14 9 21 30 25 34 6 45 -11 24 -36z"/>
<path d="M14600 4148 c0 -2 13 -40 29 -84 30 -82 30 -95 -1 -107 -24 -9 -23
-27 1 -27 16 0 51 24 51 34 0 2 15 44 34 95 30 79 32 91 17 91 -12 0 -23 -18
-37 -62 l-20 -63 -21 60 c-12 37 -26 61 -36 63 -9 2 -17 2 -17 0z"/>
<path d="M14890 4070 c0 -64 3 -80 15 -80 12 0 15 16 15 80 0 64 -3 80 -15 80
-12 0 -15 -16 -15 -80z"/>
<path d="M14971 4124 c-27 -34 -27 -88 -1 -114 28 -28 84 -27 105 2 19 28 2
37 -24 14 -22 -20 -35 -20 -55 0 -22 21 -20 67 4 89 18 17 21 17 45 1 36 -24
54 -15 27 12 -31 31 -75 29 -101 -4z"/>
<path d="M15136 4128 c-17 -24 -6 -55 22 -64 9 -3 28 -10 41 -15 22 -9 23 -11
8 -26 -13 -14 -20 -14 -47 -3 -36 15 -53 5 -26 -16 41 -29 116 -9 116 31 0 19
-28 45 -49 45 -9 0 -25 6 -35 13 -16 12 -16 14 -2 27 14 11 21 11 41 0 29 -16
43 -7 25 15 -19 23 -76 19 -94 -7z"/>
<path d="M8213 3964 c-3 -8 2 -23 11 -32 21 -21 50 -5 53 29 1 19 1 20 -4 4
-9 -34 -23 -41 -23 -12 0 30 -26 38 -37 11z m23 -21 c-10 -10 -19 5 -10 18 6
11 8 11 12 0 2 -7 1 -15 -2 -18z"/>
<path d="M8210 3882 c0 -46 59 -56 71 -12 l6 25 12 -25 11 -25 -3 25 c-2 22
-7 25 -49 28 -42 3 -48 1 -48 -16z m57 -8 c5 -15 -20 -24 -37 -14 -7 4 -9 13
-5 19 8 14 37 11 42 -5z"/>
<path d="M14450 3845 c0 -8 7 -15 15 -15 8 0 15 7 15 15 0 8 -7 15 -15 15 -8
0 -15 -7 -15 -15z"/>
<path d="M14960 3845 c0 -8 7 -15 15 -15 8 0 15 7 15 15 0 8 -7 15 -15 15 -8
0 -15 -7 -15 -15z"/>
<path d="M13840 3758 c-18 -51 -35 -99 -38 -105 -2 -7 3 -13 12 -13 10 0 22
13 27 30 10 27 16 30 50 30 35 0 41 -3 50 -30 7 -18 18 -30 29 -30 16 0 13 11
-19 103 -29 80 -42 103 -58 105 -17 3 -25 -11 -53 -90z m79 -25 c1 -8 -11 -13
-30 -13 -33 0 -33 3 -7 70 l10 25 13 -35 c8 -19 14 -41 14 -47z"/>
<path d="M14380 3745 c0 -87 3 -105 15 -105 12 0 15 18 15 105 0 87 -3 105
-15 105 -12 0 -15 -18 -15 -105z"/>
<path d="M14870 3820 c0 -11 -7 -20 -15 -20 -8 0 -15 -4 -15 -9 0 -5 7 -11 15
-15 11 -4 15 -21 15 -65 0 -57 2 -61 25 -67 32 -8 46 4 22 17 -23 13 -25 119
-2 119 8 0 15 5 15 10 0 6 -7 10 -15 10 -8 0 -15 9 -15 20 0 11 -7 20 -15 20
-8 0 -15 -9 -15 -20z"/>
<path d="M8245 3820 c-19 -3 -31 -12 -33 -25 -4 -20 -4 -20 12 0 13 17 15 18
16 3 0 -9 5 -20 11 -24 15 -9 31 10 27 33 -2 15 -9 17 -33 13z m20 -20 c3 -5
1 -10 -4 -10 -6 0 -11 5 -11 10 0 6 2 10 4 10 3 0 8 -4 11 -10z"/>
<path d="M14020 3690 c0 -91 3 -110 15 -110 11 0 15 11 15 42 0 33 3 39 12 30
20 -20 65 -14 82 10 23 32 20 94 -4 118 -23 23 -60 26 -79 8 -11 -10 -14 -10
-18 0 -14 37 -23 -1 -23 -98z m92 73 c22 -20 24 -66 2 -87 -18 -19 -20 -19
-45 -6 -26 14 -27 84 -1 99 23 14 23 14 44 -6z"/>
<path d="M14200 3690 c0 -91 3 -110 15 -110 11 0 15 11 15 42 0 33 3 39 12 30
20 -20 65 -14 82 10 23 32 20 94 -4 118 -23 23 -60 26 -79 8 -11 -10 -14 -10
-18 0 -14 37 -23 -1 -23 -98z m92 73 c22 -20 24 -66 2 -87 -18 -19 -20 -19
-45 -6 -26 14 -27 84 -1 99 23 14 23 14 44 -6z"/>
<path d="M14450 3720 c0 -64 3 -80 15 -80 12 0 15 16 15 80 0 64 -3 80 -15 80
-12 0 -15 -16 -15 -80z"/>
<path d="M14540 3782 c-29 -23 -32 -93 -5 -122 22 -24 77 -27 99 -4 20 20 20
34 1 34 -8 0 -15 -4 -15 -9 0 -13 -27 -21 -46 -14 -22 8 -35 48 -25 77 12 31
40 40 61 21 33 -30 55 -12 24 19 -21 21 -67 20 -94 -2z"/>
<path d="M14704 3786 c-26 -19 -11 -32 21 -18 14 6 32 9 40 6 25 -10 17 -33
-12 -40 -55 -11 -73 -23 -73 -47 0 -30 18 -47 50 -47 14 0 31 5 38 12 9 9 12
9 12 0 0 -7 7 -12 15 -12 22 0 21 122 -1 144 -19 20 -64 21 -90 2z m65 -112
c-17 -21 -54 -14 -54 11 0 14 9 21 30 25 34 6 45 -11 24 -36z"/>
<path d="M14960 3720 c0 -64 3 -80 15 -80 12 0 15 16 15 80 0 64 -3 80 -15 80
-12 0 -15 -16 -15 -80z"/>
<path d="M15052 3777 c-29 -30 -30 -89 -2 -117 27 -27 81 -26 106 1 28 31 25
96 -5 120 -32 26 -73 24 -99 -4z m78 -17 c24 -24 25 -48 4 -78 -18 -26 -37
-28 -58 -6 -21 20 -20 63 1 86 21 23 28 23 53 -2z"/>
<path d="M15210 3720 c0 -64 3 -80 15 -80 11 0 15 13 15 54 0 64 19 92 51 76
15 -9 19 -22 19 -70 0 -47 3 -60 15 -60 12 0 15 14 15 68 0 40 -5 73 -12 80
-15 15 -61 15 -76 0 -9 -9 -12 -9 -12 0 0 7 -7 12 -15 12 -12 0 -15 -16 -15
-80z"/>
<path d="M8210 3756 c0 -12 9 -16 38 -15 27 1 30 3 12 6 -14 3 -31 10 -37 15
-10 8 -13 6 -13 -6z"/>
<path d="M8220 3706 c-27 -33 18 -72 48 -42 13 13 14 20 6 34 -15 23 -38 26
-54 8z m41 -35 c-18 -11 -41 -3 -41 14 0 20 23 25 40 8 13 -12 13 -15 1 -22z"/>
<path d="M8203 3625 c-9 -10 -9 -14 0 -17 22 -8 70 7 75 22 5 13 3 13 -12 1
-13 -11 -22 -12 -34 -4 -13 7 -21 7 -29 -2z"/>
<path d="M8225 3578 c-16 -23 -16 -23 -31 -3 -16 20 -16 20 -12 0 4 -25 38
-32 50 -11 12 21 35 20 42 -1 3 -11 4 -8 3 7 -3 33 -31 37 -52 8z"/>
<path d="M8314 2786 c-292 -67 -494 -288 -536 -588 -32 -223 71 -474 252 -613
209 -161 499 -192 727 -77 179 91 314 260 359 450 21 87 21 239 0 322 -56 224
-230 412 -447 484 -103 35 -258 44 -355 22z m331 -395 c59 -26 65 -34 65 -87
0 -33 -5 -45 -25 -58 -92 -60 -371 -60 -463 0 -20 13 -23 22 -20 67 3 49 5 53
40 70 58 28 115 36 238 33 92 -2 125 -7 165 -25z m-232 -219 c122 -5 218 8
270 34 l28 15 -3 -73 -3 -73 -50 -25 c-47 -23 -60 -25 -200 -25 -140 0 -153 2
-200 25 l-50 25 -3 72 -3 72 48 -21 c38 -17 74 -23 166 -26z m-133 -165 c123
-34 293 -29 386 12 l45 20 -3 -72 -3 -72 -45 -22 c-115 -57 -366 -48 -442 15
-14 12 -18 31 -18 85 0 54 3 67 13 59 6 -5 37 -17 67 -25z"/>
<path d="M7860 1060 c0 -53 4 -90 10 -90 10 0 12 6 14 54 1 35 28 56 54 40 37
-24 21 -74 -25 -74 -14 0 -21 -4 -18 -10 3 -5 17 -10 30 -10 27 0 55 34 55 66
0 42 -60 70 -88 42 -9 -9 -12 -3 -12 30 0 23 -4 42 -10 42 -6 0 -10 -37 -10
-90z"/>
<path d="M7715 1115 c-70 -69 19 -188 95 -127 13 10 23 33 27 59 5 35 2 45
-20 67 -33 33 -71 33 -102 1z m89 -17 c44 -63 -21 -141 -76 -91 -10 9 -18 30
-18 46 0 60 63 90 94 45z"/>
<path d="M8012 1131 c4 -13 18 -16 19 -4 0 4 -5 9 -11 12 -7 2 -11 -2 -8 -8z"/>
<path d="M8456 1124 c-29 -28 -19 -52 32 -78 46 -24 40 -51 -11 -51 -44 0 -44
-19 0 -23 34 -3 63 19 63 49 0 11 -16 29 -41 44 -46 30 -47 49 -1 53 18 2 32
7 32 13 0 15 -57 10 -74 -7z"/>
<path d="M8310 1106 c0 -8 -6 -17 -12 -20 -10 -5 -10 -7 0 -12 6 -3 12 -21 12
-39 0 -18 3 -40 6 -49 7 -17 44 -22 44 -6 0 6 -7 10 -15 10 -11 0 -15 11 -15
40 0 29 4 40 15 40 8 0 15 5 15 10 0 6 -7 10 -15 10 -8 0 -15 7 -15 15 0 8 -4
15 -10 15 -5 0 -10 -6 -10 -14z"/>
<path d="M8570 1106 c0 -8 -6 -17 -12 -20 -10 -5 -10 -7 0 -12 6 -3 12 -21 12
-39 0 -18 3 -40 6 -49 7 -17 44 -22 44 -6 0 6 -7 10 -15 10 -11 0 -15 11 -15
40 0 29 4 40 15 40 8 0 15 5 15 10 0 6 -7 10 -15 10 -8 0 -15 7 -15 15 0 8 -4
15 -10 15 -5 0 -10 -6 -10 -14z"/>
<path d="M8010 1020 c0 -54 -4 -72 -15 -76 -16 -7 -21 -24 -6 -24 5 0 17 7 25
16 18 18 23 154 6 154 -6 0 -10 -30 -10 -70z"/>
<path d="M8080 1070 c-41 -41 -13 -100 48 -100 45 0 40 18 -5 22 -27 2 -39 8
-41 21 -3 14 4 17 42 17 50 0 60 15 28 43 -25 22 -48 21 -72 -3z m70 -20 c0
-6 -16 -10 -35 -10 -38 0 -46 13 -18 29 19 10 53 -2 53 -19z"/>
<path d="M8212 1074 c-45 -32 -17 -104 41 -104 35 0 35 18 1 22 -35 4 -53 31
-38 56 6 9 23 18 38 20 14 2 26 8 26 13 0 14 -43 11 -68 -7z"/>
<path d="M8660 1070 c-11 -11 -20 -29 -20 -40 0 -26 34 -60 60 -60 26 0 60 34
60 60 0 26 -34 60 -60 60 -11 0 -29 -9 -40 -20z m70 -15 c26 -32 -13 -81 -47
-59 -35 22 -23 74 17 74 10 0 23 -7 30 -15z"/>
<path d="M8780 1030 c0 -33 4 -60 10 -60 6 0 10 18 10 39 0 30 6 44 22 55 12
9 19 19 15 22 -4 4 -13 1 -22 -6 -10 -8 -15 -9 -15 -1 0 6 -4 11 -10 11 -6 0
-10 -27 -10 -60z"/>
<path d="M8875 1081 c-3 -5 7 -11 22 -13 34 -4 44 -28 11 -28 -29 0 -48 -17
-48 -42 0 -20 0 -20 53 -23 l37 -2 0 46 c0 26 -5 52 -12 59 -14 14 -54 16 -63
3z m53 -68 c-4 -22 -48 -31 -48 -10 0 19 10 27 32 27 13 0 18 -6 16 -17z"/>
<path d="M8996 1068 c-34 -48 -3 -107 49 -94 22 6 26 4 23 -11 -2 -13 -14 -19
-41 -21 -43 -4 -41 -22 3 -22 46 0 60 22 60 99 l0 68 -39 1 c-31 1 -44 -3 -55
-20z m69 -38 c0 -38 -24 -52 -50 -30 -31 25 -9 73 30 68 16 -2 20 -11 20 -38z"/>
<path d="M9140 1070 c-41 -41 -13 -100 48 -100 45 0 40 18 -5 22 -27 2 -39 8
-41 21 -3 14 4 17 42 17 50 0 60 15 28 43 -25 22 -48 21 -72 -3z m70 -20 c0
-6 -16 -10 -35 -10 -38 0 -46 13 -18 29 19 10 53 -2 53 -19z"/>
</g>
</svg>
